<?xml version="1.0" encoding="UTF-8"?><svg id="Layer_1" xmlns="http://www.w3.org/2000/svg" xmlns:xlink="http://www.w3.org/1999/xlink" viewBox="0 0 500 175"><defs><style>.cls-1{fill:#fff;}.cls-2,.cls-3,.cls-4,.cls-5{stroke:#bd1823;stroke-linecap:round;stroke-width:.3px;}.cls-2,.cls-3,.cls-4,.cls-5,.cls-6{fill:none;}.cls-2,.cls-4,.cls-5{stroke-linejoin:round;}.cls-7{fill:#4a4a4a;}.cls-3{stroke-linejoin:bevel;}.cls-8{fill:#be1622;}.cls-4{stroke-dasharray:0 0 .36 .36;}.cls-5{stroke-dasharray:0 0 .23 .45;}.cls-9{clip-path:url(#clippath-1);}.cls-10{clip-path:url(#clippath);}</style><clipPath id="clippath"><rect id="SVGID" class="cls-6" x="401.05" y="73.07" width="40.98" height="34.19"/></clipPath><clipPath id="clippath-1"><rect id="SVGID-2" class="cls-6" x="353.89" y="79.67" width="38.03" height="27.6"/></clipPath></defs><rect class="cls-8" x="291.74" y="27.24" width="1.3" height="131.33"/><g><path class="cls-7" d="m38.43,128.32h-2.52l-7.97-15.34v15.34h-2.52v-19.91h2.52l8,15.41v-15.41h2.49v19.91Z"/><path class="cls-7" d="m52.58,123.12h-6.73l-1.54,5.21h-2.57l6.41-19.91h2.15l6.43,19.91h-2.57l-1.57-5.21Zm-6.07-2.15h5.43l-2.72-9.05-2.71,9.05Z"/><path class="cls-7" d="m69.58,110.56h-5.24v17.76h-2.5v-17.76h-5.22v-2.15h12.96v2.15Z"/><path class="cls-7" d="m75.42,128.32h-2.5v-19.91h2.5v19.91Z"/><path class="cls-7" d="m93.04,120.12c0,2.72-.58,4.81-1.74,6.28s-2.8,2.2-4.94,2.2-3.67-.71-4.86-2.14-1.81-3.44-1.85-6.05v-3.75c0-2.66.59-4.75,1.76-6.25s2.82-2.26,4.92-2.26,3.73.72,4.9,2.17,1.77,3.51,1.8,6.19v3.62Zm-2.5-3.49c0-2.11-.34-3.67-1.03-4.7s-1.74-1.54-3.17-1.54-2.42.52-3.12,1.56-1.06,2.57-1.07,4.59v3.57c0,2.03.35,3.58,1.06,4.65s1.76,1.6,3.17,1.6,2.44-.49,3.12-1.48,1.03-2.49,1.05-4.53v-3.73Z"/><path class="cls-7" d="m110.19,128.32h-2.52l-7.97-15.34v15.34h-2.52v-19.91h2.52l8,15.41v-15.41h2.49v19.91Z"/><path class="cls-7" d="m124.34,123.12h-6.73l-1.54,5.21h-2.57l6.41-19.91h2.15l6.43,19.91h-2.57l-1.57-5.21Zm-6.07-2.15h5.43l-2.72-9.05-2.71,9.05Z"/><path class="cls-7" d="m133.99,126.18h7.81v2.15h-10.32v-19.91h2.52v17.76Z"/><path class="cls-7" d="m169.26,121.99c-.11,2.13-.71,3.77-1.8,4.9s-2.63,1.7-4.61,1.7-3.58-.76-4.76-2.28-1.76-3.58-1.76-6.17v-3.61c0-2.59.6-4.63,1.81-6.14s2.86-2.26,4.94-2.26c1.92,0,3.41.57,4.46,1.72s1.62,2.79,1.72,4.94h-2.53c-.11-1.62-.45-2.78-1.03-3.47s-1.45-1.04-2.62-1.04c-1.36,0-2.4.53-3.13,1.59s-1.09,2.62-1.09,4.67v3.65c0,2.01.34,3.56,1.02,4.63s1.67,1.61,2.97,1.61,2.24-.32,2.82-.97.93-1.81,1.07-3.49h2.53Z"/><path class="cls-7" d="m185.88,120.12c0,2.72-.58,4.81-1.74,6.28s-2.8,2.2-4.94,2.2-3.67-.71-4.86-2.14-1.81-3.44-1.85-6.05v-3.75c0-2.66.59-4.75,1.76-6.25s2.82-2.26,4.92-2.26,3.73.72,4.9,2.17,1.77,3.51,1.8,6.19v3.62Zm-2.5-3.49c0-2.11-.34-3.67-1.03-4.7s-1.74-1.54-3.17-1.54-2.42.52-3.12,1.56-1.06,2.57-1.07,4.59v3.57c0,2.03.35,3.58,1.06,4.65s1.76,1.6,3.17,1.6,2.44-.49,3.12-1.48,1.03-2.49,1.05-4.53v-3.73Z"/><path class="cls-7" d="m201.9,108.42v14.15c-.02,1.89-.57,3.36-1.64,4.43s-2.58,1.6-4.5,1.6-3.47-.52-4.51-1.57-1.57-2.53-1.59-4.46v-14.15h2.49v14.04c0,1.34.29,2.34.85,3,.57.66,1.49.99,2.75.99s2.2-.33,2.77-.99c.57-.66.85-1.66.85-3v-14.04h2.52Z"/><path class="cls-7" d="m219.04,128.32h-2.52l-7.97-15.34v15.34h-2.52v-19.91h2.52l8,15.41v-15.41h2.49v19.91Z"/><path class="cls-7" d="m234.9,110.56h-5.24v17.76h-2.5v-17.76h-5.22v-2.15h12.96v2.15Z"/><path class="cls-7" d="m247.66,119.12h-7.04v7.05h8.2v2.15h-10.71v-19.91h10.57v2.15h-8.07v6.41h7.04v2.15Z"/><path class="cls-7" d="m258.33,120.27h-3.5v8.05h-2.52v-19.91h5.58c1.95,0,3.43.51,4.43,1.52s1.5,2.5,1.5,4.46c0,1.23-.27,2.3-.81,3.22s-1.31,1.61-2.3,2.07l3.86,8.46v.16h-2.69l-3.54-8.05Zm-3.5-2.15h3.04c1.05,0,1.88-.34,2.51-1.01s.94-1.58.94-2.71c0-2.56-1.16-3.83-3.47-3.83h-3.01v7.56Z"/><path class="cls-7" d="m35.09,143.1h-4.49v15.22h-2.14v-15.22h-4.48v-1.84h11.11v1.84Z"/><path class="cls-7" d="m46.04,150.44h-6.04v6.05h7.03v1.84h-9.18v-17.06h9.06v1.84h-6.91v5.5h6.04v1.84Z"/><path class="cls-7" d="m55.18,151.42h-3v6.9h-2.16v-17.06h4.78c1.67,0,2.94.44,3.8,1.31s1.29,2.15,1.29,3.83c0,1.05-.23,1.97-.7,2.76s-1.12,1.38-1.97,1.78l3.3,7.25v.14h-2.31l-3.04-6.9Zm-3-1.84h2.6c.9,0,1.62-.29,2.15-.87s.8-1.35.8-2.32c0-2.19-.99-3.29-2.98-3.29h-2.58v6.48Z"/><path class="cls-7" d="m68.16,151.42h-3v6.9h-2.16v-17.06h4.78c1.67,0,2.94.44,3.8,1.31s1.29,2.15,1.29,3.83c0,1.05-.23,1.97-.7,2.76s-1.12,1.38-1.97,1.78l3.3,7.25v.14h-2.31l-3.04-6.9Zm-3-1.84h2.6c.9,0,1.62-.29,2.15-.87s.8-1.35.8-2.32c0-2.19-.99-3.29-2.98-3.29h-2.58v6.48Z"/><path class="cls-7" d="m87.08,151.29c0,2.33-.5,4.12-1.49,5.38s-2.4,1.89-4.23,1.89-3.15-.61-4.17-1.83-1.55-2.95-1.59-5.19v-3.21c0-2.28.5-4.07,1.51-5.36s2.41-1.94,4.22-1.94,3.2.62,4.2,1.86,1.52,3.01,1.54,5.3v3.11Zm-2.14-2.99c0-1.8-.29-3.15-.88-4.03s-1.49-1.32-2.71-1.32-2.07.45-2.68,1.34-.91,2.2-.92,3.94v3.06c0,1.74.3,3.07.91,3.98s1.51,1.37,2.71,1.37,2.09-.42,2.67-1.27.88-2.14.9-3.88v-3.2Z"/><path class="cls-7" d="m95.8,151.42h-3v6.9h-2.16v-17.06h4.78c1.67,0,2.94.44,3.8,1.31s1.29,2.15,1.29,3.83c0,1.05-.23,1.97-.7,2.76s-1.12,1.38-1.97,1.78l3.3,7.25v.14h-2.31l-3.04-6.9Zm-3-1.84h2.6c.9,0,1.62-.29,2.15-.87s.8-1.35.8-2.32c0-2.19-.99-3.29-2.98-3.29h-2.58v6.48Z"/><path class="cls-7" d="m105.86,158.32h-2.14v-17.06h2.14v17.06Z"/><path class="cls-7" d="m117.32,154.01c0-.85-.23-1.5-.69-1.96s-1.29-.89-2.5-1.32-2.12-.88-2.76-1.35-1.11-1.01-1.43-1.62-.47-1.3-.47-2.08c0-1.35.45-2.46,1.35-3.34s2.08-1.31,3.54-1.31c1,0,1.89.22,2.67.67.78.45,1.38,1.07,1.8,1.86.42.8.63,1.67.63,2.62h-2.16c0-1.05-.25-1.87-.76-2.45s-1.24-.87-2.19-.87c-.87,0-1.54.24-2.02.73s-.71,1.17-.71,2.04c0,.72.26,1.32.77,1.81s1.31.92,2.39,1.3c1.68.56,2.88,1.24,3.6,2.05s1.08,1.88,1.08,3.19c0,1.38-.45,2.49-1.35,3.32s-2.12,1.25-3.67,1.25c-.99,0-1.91-.22-2.75-.65s-1.5-1.04-1.98-1.83-.72-1.69-.72-2.7h2.16c0,1.05.29,1.88.88,2.46s1.39.88,2.41.88c.95,0,1.66-.24,2.13-.73s.71-1.14.71-1.98Z"/><path class="cls-7" d="m125.31,141.26l4.45,13.92,4.45-13.92h2.77v17.06h-2.14v-6.64l.2-6.66-4.46,13.3h-1.64l-4.44-13.25.2,6.61v6.64h-2.14v-17.06h2.77Z"/><path class="cls-7" d="m156.67,152.9c-.09,1.83-.61,3.23-1.54,4.2s-2.25,1.46-3.96,1.46-3.07-.65-4.08-1.95-1.51-3.06-1.51-5.29v-3.09c0-2.22.52-3.97,1.55-5.26s2.45-1.93,4.24-1.93c1.65,0,2.92.49,3.83,1.48s1.39,2.39,1.47,4.23h-2.17c-.09-1.39-.39-2.38-.88-2.98s-1.24-.89-2.25-.89c-1.16,0-2.06.46-2.68,1.37s-.94,2.24-.94,4v3.13c0,1.73.29,3.05.87,3.97s1.43,1.38,2.55,1.38,1.92-.28,2.41-.83.8-1.55.91-2.99h2.17Z"/><path class="cls-7" d="m170.92,151.29c0,2.33-.5,4.12-1.49,5.38s-2.4,1.89-4.23,1.89-3.15-.61-4.17-1.83-1.55-2.95-1.59-5.19v-3.21c0-2.28.5-4.07,1.51-5.36s2.41-1.94,4.22-1.94,3.2.62,4.2,1.86,1.52,3.01,1.54,5.3v3.11Zm-2.14-2.99c0-1.8-.29-3.15-.88-4.03s-1.49-1.32-2.71-1.32-2.07.45-2.68,1.34-.91,2.2-.92,3.94v3.06c0,1.74.3,3.07.91,3.98s1.51,1.37,2.71,1.37,2.09-.42,2.67-1.27.88-2.14.9-3.88v-3.2Z"/><path class="cls-7" d="m177.24,141.26l4.45,13.92,4.45-13.92h2.77v17.06h-2.14v-6.64l.2-6.66-4.46,13.3h-1.64l-4.44-13.25.2,6.61v6.64h-2.14v-17.06h2.77Z"/><path class="cls-7" d="m195.61,141.26l4.45,13.92,4.45-13.92h2.77v17.06h-2.14v-6.64l.2-6.66-4.46,13.3h-1.64l-4.44-13.25.2,6.61v6.64h-2.14v-17.06h2.77Z"/><path class="cls-7" d="m213.46,158.32h-2.14v-17.06h2.14v17.06Z"/><path class="cls-7" d="m227.1,143.1h-4.49v15.22h-2.14v-15.22h-4.48v-1.84h11.11v1.84Z"/><path class="cls-7" d="m240.02,143.1h-4.49v15.22h-2.14v-15.22h-4.48v-1.84h11.11v1.84Z"/><path class="cls-7" d="m250.96,150.44h-6.04v6.05h7.03v1.84h-9.18v-17.06h9.06v1.84h-6.91v5.5h6.04v1.84Z"/><path class="cls-7" d="m263.13,150.44h-6.04v6.05h7.03v1.84h-9.18v-17.06h9.06v1.84h-6.91v5.5h6.04v1.84Z"/></g><g id="surface1"><path class="cls-2" d="m399.04,28.97s-.6.09-.88.62c0,0-.37.53-.97.44,0,0-.6-.27-.55.31,0,0,0,.26-.32.34,0,0-1.43.88-1.8,1.93,0,0-1.16.62-.74,1.54,0,0,.14.48.97.14,0,0,1.71-.22,2.26,2.1,0,0,.51,4.43.23,6.22,0,0,.36,2.28-3.56,5.3l-.05,14.77"/><path class="cls-2" d="m399.04,28.97s.6.09.88.62c0,0,.37.53.97.44,0,0,.6-.27.55.31,0,0,0,.26.32.34,0,0,1.44.88,1.8,1.93,0,0,1.14.61.73,1.53,0,0-.14.48-.96.14,0,0-1.7-.22-2.26,2.1,0,0-.51,4.43-.24,6.22,0,0-.36,2.28,3.56,5.3l.04,14.77"/><path class="cls-2" d="m394.34,32.74s.59.35.42,1.54"/><path class="cls-2" d="m394.84,32s.7.44.6,2.37"/><path class="cls-2" d="m396.19,30.82s1.26,1.73.69,4.82"/><path class="cls-2" d="m395.83,30.96s1.17,1.3.73,4.24"/><path class="cls-2" d="m395.41,31.35s.96,1.15.72,3.35"/><path class="cls-2" d="m395.17,31.65s.93,1.25.66,2.82"/><path class="cls-2" d="m403.71,32.74s-.61.36-.42,1.55"/><path class="cls-2" d="m403.2,32s-.7.44-.61,2.37"/><path class="cls-2" d="m401.86,30.82s-1.27,1.73-.7,4.82"/><path class="cls-2" d="m402.22,30.96s-1.17,1.3-.73,4.24"/><path class="cls-2" d="m402.62,31.35s-.96,1.15-.72,3.35"/><path class="cls-2" d="m402.87,31.65s-.94,1.24-.66,2.82"/><path class="cls-2" d="m398.91,34.28c.96,0,1.75-.76,1.76-1.68,0-.92-.79-1.67-1.76-1.67s-1.76.75-1.76,1.67.78,1.68,1.77,1.68Z"/><path class="cls-2" d="m398.91,33.94c.77,0,1.41-.6,1.41-1.34s-.64-1.34-1.41-1.34-1.41.6-1.41,1.34c0,.74.63,1.34,1.42,1.34Z"/><path class="cls-2" d="m398.91,33.54c.54,0,.98-.42.98-.94s-.44-.94-.98-.94c-.55,0-1,.42-1,.94s.45.94,1,.94Z"/><path class="cls-2" d="m398.91,33.02c.25,0,.44-.18.44-.42s-.2-.42-.44-.42c-.26,0-.45.19-.45.42,0,.24.19.42.45.42Z"/><path class="cls-2" d="m401.54,30.66h-5.16"/><path class="cls-2" d="m400.29,29.97h-2.42"/><path class="cls-2" d="m398.04,34.05s-.94.56-.83,1.21c0,0-.1.76,1.31.33,0,0-1.07.66-.24,1.21"/><path class="cls-2" d="m399.98,34.05s.93.56.83,1.21c0,0,.1.76-1.31.33,0,0,1.07.66.24,1.21"/><path class="cls-2" d="m398.14,34.35s-.38.34-.38.61c0,0,0,.24.21.3,0,0,.32.13.45-.21,0,0,.07-.24-.17-.29,0,0-.14,0-.1-.41Z"/><path class="cls-2" d="m399.92,34.35s.38.34.38.61c0,0,0,.24-.2.3,0,0-.32.13-.45-.21,0,0-.07-.24.16-.29,0,0,.14,0,.1-.41Z"/><path class="cls-2" d="m398.97,34.86c.12,0,.22-.09.22-.21,0-.11-.1-.21-.22-.21-.12,0-.21.1-.21.21,0,.12.1.21.21.21Z"/><path class="cls-2" d="m399,36.52c.17,0,.33-.14.33-.31,0-.18-.15-.31-.33-.31s-.32.13-.32.3.15.32.33.32Z"/><path class="cls-2" d="m397.06,37.13s2.02-.79,3.94,0"/><path class="cls-2" d="m397.07,37.45s2.03-.79,3.94,0"/><path class="cls-2" d="m397.07,37.94s2.02-.78,3.94,0"/><path class="cls-2" d="m397.19,38.77s1.92-.53,3.71,0"/><path class="cls-2" d="m399.04,39.34s.22-.51.71-.07"/><path class="cls-2" d="m399.28,39.41s-.08.54-.67.25"/><path class="cls-2" d="m397.98,39.42s.23-.51.72-.07"/><path class="cls-2" d="m398.23,39.48s-.07.54-.67.25"/><path class="cls-2" d="m400.26,39.42s-.07.55-.67.26"/><path class="cls-2" d="m397.3,40.28s1.23-.46,3.44-.04"/><path class="cls-2" d="m397.32,40.65s1.22-.46,3.44-.04"/><path class="cls-2" d="m397.27,41.01s1.23-.46,3.44-.05"/><path class="cls-2" d="m397.28,42.67s1.23-.45,3.44-.04"/><path class="cls-2" d="m397.3,41.77s1.23-.46,3.44-.04"/><path class="cls-2" d="m400.14,45.55s1.03-.61.92-1.34c0,0,.11-.83-1.45-.36,0,0,1.17-.72.26-1.34"/><path class="cls-2" d="m398.01,45.55s-1.03-.61-.91-1.34c0,0-.11-.83,1.44-.36,0,0-1.17-.72-.26-1.34"/><path class="cls-2" d="m400.03,45.23s.43-.39.43-.68c0,0,0-.27-.23-.34,0,0-.35-.14-.49.23,0,0-.07.27.18.32,0,0,.15,0,.1.46Z"/><path class="cls-2" d="m398.08,45.23s-.42-.39-.42-.68c0,0,0-.26.22-.34,0,0,.35-.14.49.23,0,0,.07.27-.19.32,0,0-.15,0-.11.46Z"/><path class="cls-2" d="m399.11,44.66c-.12,0-.24.1-.24.23,0,.13.11.23.24.23.14,0,.25-.1.25-.23,0-.12-.11-.23-.25-.23Z"/><path class="cls-2" d="m399.08,42.84c-.19,0-.35.15-.35.34s.16.34.35.34.37-.15.37-.33c0-.2-.17-.35-.37-.35Z"/><path class="cls-2" d="m399.11,49.6c1.23,0,2.23-.95,2.23-2.12s-1-2.11-2.23-2.11-2.22.94-2.22,2.11c0,1.17.99,2.12,2.22,2.12Z"/><path class="cls-2" d="m399.11,48.97c.86,0,1.56-.67,1.56-1.48,0-.82-.7-1.48-1.56-1.48s-1.55.66-1.55,1.48c0,.82.69,1.48,1.55,1.48Z"/><path class="cls-2" d="m399.11,48.52c.61,0,1.09-.46,1.1-1.03,0-.57-.48-1.04-1.1-1.04s-1.09.46-1.09,1.04.49,1.04,1.09,1.04Z"/><path class="cls-2" d="m399.11,48.31c.48,0,.88-.37.88-.83,0-.46-.39-.82-.88-.82s-.87.37-.87.82.39.83.87.83Z"/><path class="cls-2" d="m402.04,48.46s-.42.16-.19.5c0,0,.28.31.55-.13,0,0-.11.41.26.45,0,0,.46.03.28-.49,0,0,.28.43.54.17,0,0,.33-.3-.24-.51,0,0,.53.13.5-.3,0,0-.04-.28-.43-.19,0,0,.48-.39-.02-.58,0,0-.31-.08-.39.36,0,0,.1-.52-.35-.52,0,0-.41.08-.18.51,0,0-.26-.48-.59-.22,0,0-.27.3.36.55,0,0-.55-.26-.63.06,0,0-.2.43.54.35Z"/><path class="cls-2" d="m402.61,48.5c.14,0,.26-.11.26-.26,0-.15-.12-.25-.27-.25s-.26.1-.26.25.11.26.27.26Z"/><path class="cls-2" d="m394.98,48.37s-.41.16-.19.5c0,0,.28.31.55-.13,0,0-.12.4.25.46,0,0,.46.02.28-.5,0,0,.28.43.54.17,0,0,.33-.3-.25-.51,0,0,.53.13.5-.31,0,0-.04-.27-.43-.19,0,0,.48-.39-.02-.58,0,0-.31-.08-.4.36,0,0,.1-.53-.34-.53,0,0-.41.09-.2.51,0,0-.25-.47-.59-.21,0,0-.25.29.37.54,0,0-.55-.27-.62.07,0,0-.21.42.53.34Z"/><path class="cls-2" d="m395.55,48.41c.15,0,.27-.12.27-.25,0-.14-.12-.26-.27-.26s-.27.11-.27.26c0,.13.12.25.27.25Z"/><path class="cls-2" d="m393.72,57.71h10.65"/><path class="cls-2" d="m393.75,49.77h10.66"/><path class="cls-2" d="m393.75,50.12h10.66"/><path class="cls-4" d="m393.73,49.93h10.65"/><path class="cls-2" d="m393.71,51.5s5.29.39,10.7,0"/><path class="cls-2" d="m393.68,54.15s5.3.39,10.69,0"/><path class="cls-2" d="m393.72,60.73s5.29.39,10.69,0"/><path class="cls-2" d="m393.68,55.63s5.3.39,10.69,0"/><path class="cls-2" d="m393.61,56.6s5.3.4,10.69,0"/><path class="cls-2" d="m393.64,53s5.3.4,10.69,0"/><path class="cls-2" d="m399.98,50.89s-.16.37-.37.09c0,0-.24-.44.21-.59,0,0,.32-.06.64.26,0,0,.32.49.64.41,0,0,.44-.04.23-.44"/><path class="cls-2" d="m399.56,50.84s.02.39-.28.2"/><path class="cls-2" d="m400.51,50.72s-.08-.39.25-.24"/><path class="cls-2" d="m402.49,50.86s-.16.37-.37.09c0,0-.23-.44.2-.6,0,0,.32-.06.65.27,0,0,.32.49.64.42,0,0,.44-.05.23-.44"/><path class="cls-2" d="m402.07,50.82s.02.39-.28.2"/><path class="cls-2" d="m403.02,50.69s-.09-.38.25-.24"/><path class="cls-2" d="m398.03,50.89s.16.37.37.09c0,0,.23-.44-.22-.59,0,0-.32-.06-.64.26,0,0-.33.49-.65.41,0,0-.44-.04-.23-.44"/><path class="cls-2" d="m398.45,50.84s-.02.39.28.2"/><path class="cls-2" d="m397.49,50.72s.1-.39-.24-.24"/><path class="cls-2" d="m395.52,50.86s.16.37.37.09c0,0,.23-.44-.21-.6,0,0-.32-.06-.65.26,0,0-.33.49-.65.42,0,0-.44-.05-.23-.44"/><path class="cls-2" d="m395.93,50.82s-.01.39.29.2"/><path class="cls-2" d="m394.98,50.7s.09-.38-.24-.24"/><path class="cls-2" d="m399.72,55.06s.02.39-.29.2"/><path class="cls-2" d="m400.67,54.93s-.09-.39.24-.24"/><path class="cls-2" d="m400.14,55.1s-.16.36-.37.09c0,0-.23-.44.21-.59,0,0,.32-.06.64.26,0,0,.33.48.65.42,0,0,.44-.05.23-.44"/><path class="cls-2" d="m402.23,55.04s.02.4-.29.2"/><path class="cls-2" d="m403.18,54.91s-.09-.39.25-.24"/><path class="cls-2" d="m402.64,55.08s-.16.37-.37.09c0,0-.23-.44.21-.6,0,0,.32-.07.65.27,0,0,.32.48.64.41,0,0,.44-.05.22-.43"/><path class="cls-2" d="m398.19,55.1s.16.36.36.09c0,0,.24-.44-.2-.59,0,0-.32-.06-.65.26,0,0-.32.48-.65.42,0,0-.44-.05-.22-.44"/><path class="cls-2" d="m398.6,55.05s-.02.39.28.2"/><path class="cls-2" d="m397.64,54.93s.09-.39-.24-.24"/><path class="cls-2" d="m395.68,55.08s.17.37.37.09c0,0,.23-.45-.2-.6,0,0-.33-.07-.65.27,0,0-.32.48-.65.41,0,0-.44-.05-.24-.43"/><path class="cls-2" d="m396.09,55.04s-.02.4.29.2"/><path class="cls-2" d="m395.14,54.91s.1-.39-.24-.24"/><path class="cls-2" d="m393.64,53c5.34.4,5.26.4,10.69,0"/><path class="cls-2" d="m393.64,52.3c5.34.4,5.26.4,10.69,0"/><path class="cls-2" d="m393.64,53.47c5.34.4,5.26.4,10.69,0"/><path class="cls-2" d="m393.61,59.71c-1.31-1.38-5.53-8.38-5.53-8.38-.87-1.48-3.53-5.07-3.53-5.07l-3.33-3.68-7.06-9.1-2.73-3.55-.07-.4-1.56-2.43c-.66-1.15-.8-1.29-.8-1.29-1.59-.65-1.97-.78-1.97-.78l-.31.23s-.25.07-.25.86l.07,1.41,2.6,3.49.27.1s-.3-.59,1.32,2.14l4.4,7.76,4.09,8.31s.62,1.14,2.35,3.81l6.06,9.47"/><path class="cls-2" d="m366.61,25.4l.17,1.61,1.76-1.18-1.62-.62-.31.19Z"/><path class="cls-2" d="m369.72,30.89l-2.94-3.88,1.66-1.05,2.66,4.18"/><path class="cls-2" d="m368.24,27.82c.21,0,.39-.17.39-.37s-.18-.37-.39-.37-.39.17-.39.37c0,.21.17.37.39.37Z"/><path class="cls-2" d="m371.39,29.84l-1.98,1.28"/><path class="cls-2" d="m371.59,30.1l-1.97,1.29"/><path class="cls-2" d="m371.72,30.39l-1.97,1.29"/><path class="cls-2" d="m371.93,30.68l-1.97,1.28"/><path class="cls-2" d="m372.12,30.99l-1.97,1.28"/><path class="cls-2" d="m372.37,31.35l-1.98,1.28"/><path class="cls-2" d="m372.8,31.9l-1.98,1.28"/><path class="cls-2" d="m393.55,60.59l-2.57,1.55"/><path class="cls-2" d="m393.68,60.8l-2.46,1.49"/><path class="cls-2" d="m393.66,61.08l-2.29,1.38"/><path class="cls-2" d="m393.68,61.29l-2.17,1.32"/><path class="cls-2" d="m393.64,61.57l-1.99,1.21"/><path class="cls-2" d="m388.58,62.66l-1.58-2.39,4.24-2.55,1.85,2.55-2.83,1.72"/><path class="cls-2" d="m391.41,57.94l-4.22,2.56"/><path class="cls-2" d="m392.58,59.71l-4.22,2.56"/><path class="cls-2" d="m392.72,59.86l-4.23,2.57"/><path class="cls-2" d="m391.8,58.56l-.07,1.6"/><path class="cls-2" d="m388.3,60.2l-.1,1.72"/><path class="cls-2" d="m390.69,58.8l-.11,2.01"/><path class="cls-2" d="m389.54,59.43l-.12,2.04"/><path class="cls-2" d="m390.53,58.91l1.81.37"/><path class="cls-2" d="m389.4,59.56l2.4.48"/><path class="cls-2" d="m388.18,60.29l2.56.44"/><path class="cls-2" d="m387.62,61l2,.44"/><path class="cls-2" d="m370.91,33.52l4.22,1.22"/><path class="cls-2" d="m371.99,35.42l4.63,1.29"/><path class="cls-2" d="m373.16,37.53l5.29,1.51"/><path class="cls-2" d="m372.05,32.47s-.03,2.3-.14,2.83"/><path class="cls-2" d="m373.26,32.38s-.1,3.48-.28,4.83"/><path class="cls-2" d="m374.55,33.98s-.18,3.95-.36,5.29"/><path class="cls-2" d="m376.15,36.01s-.22,4.87-.4,6.22"/><path class="cls-2" d="m377.86,38.29s.17,4.76-.35,7.63"/><path class="cls-2" d="m374.61,40.03s4.04,1.05,6.16,1.97"/><path class="cls-2" d="m376,42.72s6.99,2.3,7.68,2.6"/><path class="cls-2" d="m380.08,41.15s.07,5.19-1,7.86"/><path class="cls-2" d="m382.5,44.04s-.31,3.12-.45,3.68"/><path class="cls-2" d="m377.58,46.01s2.98.86,4.25,1.75"/><path class="cls-2" d="m384.54,46.27l-5.33,3.06"/><path class="cls-2" d="m384.94,46.94l-5.33,3.05"/><path class="cls-2" d="m386.17,48.61l-5.5,3.18"/><path class="cls-2" d="m386.55,49.22l-5.5,3.17"/><path class="cls-2" d="m387.04,49.91l-5.5,3.18"/><path class="cls-2" d="m388.5,56.81s-.22-.14-.22.08c0,0,.05.31.34.24,0,0,.19-.07.24-.36,0,0-.01-.37.18-.44,0,0,.24-.13.29.15"/><path class="cls-2" d="m388.3,56.98s-.14-.21-.22,0"/><path class="cls-2" d="m388.85,56.72s.1.23.22.04"/><path class="cls-2" d="m387.4,57.47s0-.26.19-.16c0,0,.26.19.06.39,0,0-.18.13-.45.02,0,0-.33-.19-.5-.07,0,0-.23.14,0,.31"/><path class="cls-2" d="m387.66,57.39s-.13-.23.1-.19"/><path class="cls-2" d="m387.15,57.71s.16.2-.07.2"/><path class="cls-2" d="m384.86,52.99s-.02-.25.18-.15c0,0,.26.19.06.4,0,0-.16.12-.44.03,0,0-.33-.19-.5-.06,0,0-.24.15,0,.31"/><path class="cls-2" d="m385.11,52.9s-.13-.22.1-.19"/><path class="cls-2" d="m384.61,53.23s.16.2-.07.21"/><path class="cls-2" d="m385.99,52.39s-.23-.13-.23.09c0,0,.05.32.34.24,0,0,.2-.08.23-.37,0,0-.02-.36.17-.44,0,0,.25-.13.29.15"/><path class="cls-2" d="m385.79,52.55s-.14-.21-.23,0"/><path class="cls-2" d="m386.33,52.29s.11.23.22.03"/><path class="cls-2" d="m389.28,55.67s-.26.05-.17-.16c0,0,.17-.27.41-.1,0,0,.15.14.08.42,0,0-.15.34,0,.48,0,0,.17.2.33-.04"/><path class="cls-2" d="m389.17,55.44s-.22.15-.21-.07"/><path class="cls-2" d="m389.57,55.88s.18-.19.22.04"/><path class="cls-2" d="m388.3,54.12s-.27.05-.18-.16c0,0,.17-.27.41-.1,0,0,.14.14.08.41,0,0-.16.34,0,.48,0,0,.18.2.33-.04"/><path class="cls-2" d="m388.17,53.89s-.21.14-.21-.08"/><path class="cls-2" d="m388.58,54.33s.18-.18.21.03"/><path class="cls-2" d="m387.75,52.94s.26-.08.2.14c0,0-.13.28-.39.15,0,0-.17-.13-.13-.41,0,0,.11-.35-.05-.47,0,0-.21-.18-.33.07"/><path class="cls-2" d="m387.9,53.15s.19-.17.21.05"/><path class="cls-2" d="m387.44,52.76s-.17.2-.22-.02"/><path class="cls-2" d="m385.73,57.17s.17-.2-.06-.23c0,0-.33.01-.28.29,0,0,.06.2.35.28,0,0,.38.02.44.21,0,0,.11.26-.19.26"/><path class="cls-2" d="m385.58,56.95s.25-.11.04-.21"/><path class="cls-2" d="m385.79,57.51s-.26.07-.07.2"/><path class="cls-2" d="m384.77,55.59s.17-.2-.06-.22c0,0-.33,0-.29.29,0,0,.06.19.35.27,0,0,.39.03.45.22,0,0,.1.25-.19.26"/><path class="cls-2" d="m384.62,55.38s.24-.11.03-.21"/><path class="cls-2" d="m384.82,55.93s-.25.07-.07.21"/><path class="cls-2" d="m383.94,54.57s-.2.18.03.24c0,0,.33.02.32-.26,0,0-.04-.2-.31-.31,0,0-.38-.07-.42-.26,0,0-.07-.27.22-.24"/><path class="cls-2" d="m384.07,54.8s-.25.08-.06.2"/><path class="cls-2" d="m383.92,54.23s.26-.04.09-.19"/><path class="cls-2" d="m391.26,56.43l-5.5,3.25"/><path class="cls-2" d="m391.54,56.86l-5.5,3.25"/><path class="cls-2" d="m387.07,51.04l3.46,5.39-4.36,2.53-3.46-5.42,4.36-2.5Z"/><path class="cls-2" d="m386.87,52.77l1.96,3.03-2.46,1.43-1.95-3.06,2.46-1.41Z"/><path class="cls-2" d="m386.78,53.58l1.24,1.94-1.56.91-1.25-1.95,1.57-.9Z"/><path class="cls-2" d="m386.3,54.56l.62.98"/><path class="cls-2" d="m380.72,51.7l-.1-2.28,1.92,1.23-.07-2.26,1.96,1.21-.18-2.24,1.85,1.21"/><path class="cls-2" d="m371.84,32.6l2.01.52"/><path class="cls-2" d="m425.66,33.52l-4.23,1.22"/><path class="cls-2" d="m424.57,35.42l-4.63,1.29"/><path class="cls-2" d="m423.41,37.53l-5.3,1.51"/><path class="cls-2" d="m424.52,32.46s.03,2.31.13,2.83"/><path class="cls-2" d="m423.31,32.38s.1,3.48.27,4.83"/><path class="cls-2" d="m422.02,33.98s.17,3.95.35,5.29"/><path class="cls-2" d="m420.41,36.01s.23,4.87.4,6.22"/><path class="cls-2" d="m418.7,38.29s-.17,4.76.35,7.63"/><path class="cls-2" d="m421.95,40.03s-4.05,1.05-6.16,1.97"/><path class="cls-2" d="m420.57,42.72s-6.99,2.3-7.69,2.6"/><path class="cls-2" d="m416.49,41.15s-.07,5.19,1,7.86"/><path class="cls-2" d="m414.07,44.04s.31,3.12.45,3.68"/><path class="cls-2" d="m418.97,46.01s-2.97.86-4.25,1.75"/><path class="cls-2" d="m412.02,46.27l5.32,3.06"/><path class="cls-2" d="m411.63,46.94l5.32,3.05"/><path class="cls-2" d="m410.4,48.61l5.5,3.18"/><path class="cls-2" d="m410.01,49.22l5.5,3.17"/><path class="cls-2" d="m409.52,49.91l5.5,3.18"/><path class="cls-2" d="m408.07,56.81s.22-.14.22.08c0,0-.04.31-.33.24,0,0-.2-.07-.24-.36,0,0,.02-.37-.18-.44,0,0-.25-.13-.29.15"/><path class="cls-2" d="m408.27,56.98s.15-.21.22,0"/><path class="cls-2" d="m407.71,56.72s-.1.23-.21.04"/><path class="cls-2" d="m409.16,57.47s0-.26-.18-.16c0,0-.27.19-.06.39,0,0,.17.13.45.03,0,0,.32-.19.5-.07,0,0,.25.14,0,.31"/><path class="cls-2" d="m408.91,57.39s.13-.23-.1-.19"/><path class="cls-2" d="m409.42,57.71s-.17.2.07.2"/><path class="cls-2" d="m411.71,52.99s.02-.25-.18-.15c0,0-.26.19-.06.4,0,0,.17.12.45.03,0,0,.33-.19.49-.06,0,0,.24.15,0,.31"/><path class="cls-2" d="m411.46,52.9s.13-.22-.1-.19"/><path class="cls-2" d="m411.96,53.23s-.17.19.06.21"/><path class="cls-2" d="m410.58,52.39s.23-.13.23.09c0,0-.05.31-.34.23,0,0-.19-.08-.23-.37,0,0,.02-.36-.18-.44,0,0-.24-.13-.29.15"/><path class="cls-2" d="m410.78,52.55s.14-.21.23,0"/><path class="cls-2" d="m410.23,52.29s-.11.23-.22.03"/><path class="cls-2" d="m407.27,55.67s.27.05.18-.16c0,0-.17-.27-.41-.1,0,0-.15.14-.08.42,0,0,.16.34,0,.48,0,0-.18.2-.33-.04"/><path class="cls-2" d="m407.4,55.44s.22.15.21-.07"/><path class="cls-2" d="m406.99,55.88s-.18-.19-.22.04"/><path class="cls-2" d="m408.27,54.12s.26.05.17-.16c0,0-.16-.27-.41-.1,0,0-.15.14-.08.42,0,0,.16.33,0,.48,0,0-.17.2-.32-.04"/><path class="cls-2" d="m408.39,53.89s.21.14.21-.08"/><path class="cls-2" d="m407.98,54.33s-.19-.18-.22.04"/><path class="cls-2" d="m408.81,52.94s-.26-.08-.2.14c0,0,.14.28.39.15,0,0,.16-.13.12-.41,0,0-.12-.35.05-.47,0,0,.2-.18.32.07"/><path class="cls-2" d="m408.67,53.15s-.19-.17-.22.05"/><path class="cls-2" d="m409.13,52.76s.16.2.22-.02"/><path class="cls-2" d="m410.83,57.17s-.17-.2.06-.23c0,0,.33.01.29.29,0,0-.06.2-.35.28,0,0-.39.02-.44.21,0,0-.1.25.2.26"/><path class="cls-2" d="m410.98,56.95s-.24-.11-.04-.21"/><path class="cls-2" d="m410.78,57.51s.26.07.07.2"/><path class="cls-2" d="m411.8,55.59s-.17-.2.06-.22c0,0,.33,0,.29.29,0,0-.06.19-.35.27,0,0-.38.03-.44.22,0,0-.1.25.19.26"/><path class="cls-2" d="m411.95,55.38s-.24-.11-.04-.21"/><path class="cls-2" d="m411.74,55.93s.26.07.07.21"/><path class="cls-2" d="m412.63,54.57s.19.18-.04.24c0,0-.33.02-.32-.26,0,0,.04-.2.32-.31,0,0,.37-.07.41-.26,0,0,.08-.27-.22-.24"/><path class="cls-2" d="m412.5,54.8s.26.08.06.2"/><path class="cls-2" d="m412.64,54.23s-.26-.04-.09-.19"/><path class="cls-2" d="m405.31,56.43l5.5,3.25"/><path class="cls-2" d="m405.02,56.86l5.5,3.25"/><path class="cls-2" d="m409.5,51.04l-3.46,5.39,4.36,2.53,3.46-5.42-4.35-2.5Z"/><path class="cls-2" d="m409.68,52.77l-1.95,3.03,2.46,1.43,1.95-3.06-2.47-1.41Z"/><path class="cls-2" d="m409.79,53.58l-1.24,1.94,1.57.91,1.24-1.95-1.57-.9Z"/><path class="cls-2" d="m410.26,54.56l-.62.98"/><path class="cls-2" d="m415.84,51.7l.09-2.28-1.91,1.23.07-2.26-1.97,1.21.18-2.24-1.84,1.21"/><path class="cls-2" d="m424.72,32.6l-2.01.52"/><path class="cls-2" d="m404.43,57.74c1.74-2.56,4.06-6.4,4.06-6.4.86-1.48,3.53-5.07,3.53-5.07l3.32-3.68,7.06-9.1,2.73-3.55.07-.4,1.55-2.43c.66-1.15.8-1.28.8-1.28,1.58-.66,1.97-.78,1.97-.78l.31.23s.24.07.24.86l-.07,1.41-2.59,3.49-.28.1s.31-.59-1.31,2.14l-4.4,7.76-4.09,8.32s-.61,1.14-2.35,3.81l-5.1,7.97"/><path class="cls-2" d="m426.84,30.89l2.94-3.88-1.66-1.05-2.67,4.18"/><path class="cls-2" d="m428.32,27.82c-.22,0-.39-.17-.39-.38,0-.2.18-.37.39-.37s.39.16.39.37-.18.37-.39.37Z"/><path class="cls-2" d="m425.17,29.84l1.97,1.28"/><path class="cls-2" d="m424.98,30.09l1.97,1.29"/><path class="cls-2" d="m424.84,30.39l1.97,1.29"/><path class="cls-2" d="m424.64,30.68l1.97,1.28"/><path class="cls-2" d="m424.44,30.99l1.97,1.28"/><path class="cls-2" d="m424.2,31.35l1.98,1.27"/><path class="cls-2" d="m423.76,31.9l1.97,1.28"/><path class="cls-2" d="m429.95,25.4l-.17,1.61-1.77-1.18,1.62-.62.31.19Z"/><path class="cls-2" d="m405.16,57.94l4.22,2.56"/><path class="cls-2" d="m404.77,58.56l.07,1.6"/><path class="cls-2" d="m405.87,58.8l.11,2.01"/><path class="cls-2" d="m407.03,59.43l.11,2.04"/><path class="cls-2" d="m406.04,58.91l-1.62.33"/><path class="cls-2" d="m407.16,59.56l-2.39.48"/><path class="cls-2" d="m408.39,60.29l-2.56.44"/><path class="cls-2" d="m408.95,61l-2,.44"/><path class="cls-2" d="m404.4,61.44l2.05,1.24"/><path class="cls-2" d="m404.41,61.71l1.57.96"/><path class="cls-2" d="m408.9,61.27l.67-1.01-4.25-2.55-.89,1.22"/><path class="cls-2" d="m404.43,60.85l3.02,1.84"/><path class="cls-2" d="m404.4,59.96l3.53,2.14"/><path class="cls-2" d="m404.41,60.2l3.38,2.05"/><path class="cls-2" d="m408.27,60.2l.09,1.42"/><path class="cls-2" d="m381.92,62.85v-2.56c0-.21-.17-.38-.39-.38h-12.74c-.22,0-.39.17-.39.38v8.06c0,.21.18.37.39.37h12.74c.21,0,.38-.16.39-.37v-2.88"/><path class="cls-2" d="m368.49,61.67h13.47"/><path class="cls-4" d="m368.36,60.57h13.47"/><path class="cls-4" d="m368.31,61.12h13.47"/><path class="cls-2" d="m381.79,66.84h-13.47"/><path class="cls-4" d="m381.92,67.94h-13.47"/><path class="cls-4" d="m381.96,67.39h-13.48"/><path class="cls-2" d="m375.12,62.45s-.25-.04-.44.29c0,0-.16.33-.39.29,0,0-.26.13-.37-.35,0,0,.03-.48-.48-.37,0,0-.64.11-.28.61,0,0,.63.35.28.61,0,0-.32.24-.58-.24,0,0-.35-.39-.92.37l-.24.37"/><path class="cls-2" d="m375.12,65.61s-.25.04-.44-.29c0,0-.16-.33-.39-.29,0,0-.26-.13-.37.35,0,0,.03.48-.48.38,0,0-.65-.11-.28-.61,0,0,.62-.36.28-.62,0,0-.33-.24-.58.24,0,0-.35.39-.92-.37l-.24-.38"/><path class="cls-2" d="m375.12,62.45s.25-.04.43.29c0,0,.17.33.4.29,0,0,.25.13.37-.35,0,0-.03-.48.48-.37,0,0,.65.11.28.61,0,0-.63.35-.28.61,0,0,.32.24.58-.24,0,0,.34-.39.93.37l.23.37"/><path class="cls-2" d="m375.12,65.61s.25.04.43-.29c0,0,.17-.33.4-.29,0,0,.25-.13.37.35,0,0-.03.48.48.38,0,0,.65-.11.28-.61,0,0-.62-.36-.28-.62,0,0,.32-.24.58.24,0,0,.34.39.93-.37l.23-.38"/><path class="cls-2" d="m372.64,64.2c.1,0,.18-.07.18-.17,0-.09-.08-.15-.18-.16-.1,0-.17.07-.17.16,0,.09.07.17.17.17Z"/><path class="cls-2" d="m377.65,64.2c.1,0,.17-.07.17-.17,0-.09-.08-.15-.17-.16-.1,0-.17.07-.17.16,0,.09.07.17.17.17Z"/><path class="cls-2" d="m375.12,64.75c.22,0,.39-.3.39-.66,0-.36-.17-.65-.39-.65s-.39.29-.39.65.18.66.39.66Z"/><path class="cls-2" d="m387,62.68c-.52-1.02-1.42-1.66-2.32-1.52-.77.12-1.36.78-1.6,1.69"/><path class="cls-2" d="m383.34,65.56c.5,1.11,1.42,1.72,2.36,1.58.57-.09,1.04-.47,1.35-1.03"/><path class="cls-2" d="m385.8,62.58s-.69-.17-.69.96v1.49s0,.61.37,1.01c0,0-.41.35-.92-.04,0,0-.28-.09-.28-.83v-1.88s-.14-.31-.37-.48c0,0-.09-.92,1.16-.96,0,0,.78.18.73.74Z"/><path class="cls-2" d="m383.96,62.89h-3.51v2.62h3.64"/><path class="cls-2" d="m380.49,63.33h3.74"/><path class="cls-2" d="m380.57,63.77h3.6"/><path class="cls-2" d="m380.54,64.2h3.6"/><path class="cls-2" d="m380.57,64.64h3.6"/><path class="cls-2" d="m380.58,65.08h3.61"/><path class="cls-2" d="m392.47,63.27s1.11-.2,2.01.88c0,0,.76.66.66,2.04,0,0-.04,1.21-.93,2"/><path class="cls-2" d="m396.1,65.63c-.48-2.89-3.98-3.15-3.98-3.15,0,0,2.35-.13,3.32,1.12,0,0,1.28,1.38.31,3.55,0,0-.72,1.61-3.15,1.05l-.48-.19"/><path class="cls-2" d="m393.78,63.63c-1.8-.03-2.49-1.28-2.49-1.28-.3-.22-.58-.32-.83-.34-.75-.06-1.26.7-1.26.7"/><path class="cls-2" d="m389.5,62.37s2.03,2.85,5.42,2.67"/><path class="cls-2" d="m390.61,62.06s.77,1.95,3.59,1.87"/><path class="cls-2" d="m389.99,62.06s1.21,2.35,4.65,2.39"/><path class="cls-2" d="m387.14,66.06c2.03,1.02,3.56.07,3.56.07,1.11-.76,4.36-.32,4.36-.32"/><path class="cls-2" d="m395.06,65.56l-3.25-.13s-1.25-.26-1.98.42c0,0-.41.47-.76.63"/><path class="cls-2" d="m394.82,67.31s-1.31-.14-2.25.39c0,0-.45.46-1.14.17,0,0-.98-.43-1.6-1.38"/><path class="cls-2" d="m393.68,65.7s-2.31.22-3.42,1.28"/><path class="cls-2" d="m394.95,67.01s-2-.35-3.25.93"/><path class="cls-2" d="m394.99,66.75s-2.49-.42-3.56,1.12"/><path class="cls-2" d="m395.03,66.42s-2.73-.36-3.87,1.21"/><path class="cls-2" d="m393.11,65.02s-1.8-.24-2.91-1.09c0,0-.1-.14-.9-1.29"/><path class="cls-2" d="m393.89,65.5l-3.15-.53s-.69-.1-1.21.59c0,0-.44.95-1.18.86"/><path class="cls-2" d="m390.08,65.01v-1.18h-4.92v1.18h4.92Z"/><path class="cls-2" d="m385.41,66.09h3.6"/><path class="cls-2" d="m385.41,65.73h3.87"/><path class="cls-5" d="m385.24,65.37h4.43"/><path class="cls-2" d="m385.47,62.68h3.88"/><path class="cls-2" d="m385.34,63.04h4.15"/><path class="cls-5" d="m385.16,63.41h4.71"/><path class="cls-2" d="m383.51,62.84s0-.98,1-1.21c0,0,1-.3,1.66.95"/><path class="cls-2" d="m384.06,65.66s.28.82,1.17.86c0,0,.38.1.72-.39"/><path class="cls-2" d="m412.63,62.85v-2.56c0-.21.17-.38.39-.38h12.73c.22,0,.4.17.4.38v8.06c0,.21-.18.37-.4.37h-12.73c-.22,0-.39-.16-.39-.37v-2.88"/><path class="cls-2" d="m426.07,61.67h-13.48"/><path class="cls-4" d="m426.2,60.57h-13.48"/><path class="cls-4" d="m426.24,61.12h-13.48"/><path class="cls-2" d="m412.77,66.84h13.48"/><path class="cls-4" d="m412.64,67.94h13.47"/><path class="cls-4" d="m412.59,67.39h13.47"/><path class="cls-2" d="m419.44,62.45s.26-.04.44.29c0,0,.16.33.4.28,0,0,.25.13.36-.35,0,0-.03-.48.49-.37,0,0,.63.11.28.61,0,0-.64.35-.28.61,0,0,.32.24.57-.24,0,0,.34-.39.93.37l.23.37"/><path class="cls-2" d="m419.44,65.61s.26.04.44-.29c0,0,.16-.33.4-.29,0,0,.25-.14.37.35,0,0-.03.48.49.38,0,0,.63-.11.28-.61,0,0-.64-.36-.28-.62,0,0,.31-.24.57.24,0,0,.34.39.93-.37l.22-.38"/><path class="cls-2" d="m419.44,62.45s-.26-.04-.43.29c0,0-.17.33-.4.29,0,0-.25.13-.36-.35,0,0,.02-.48-.49-.37,0,0-.64.11-.27.61,0,0,.62.35.27.61,0,0-.32.24-.57-.24,0,0-.35-.39-.93.37l-.24.37"/><path class="cls-2" d="m419.44,65.61s-.26.04-.43-.29c0,0-.17-.33-.4-.29,0,0-.25-.14-.36.35,0,0,.02.48-.49.38,0,0-.64-.11-.27-.61,0,0,.62-.35.27-.62,0,0-.32-.24-.57.24,0,0-.35.39-.93-.37l-.24-.38"/><path class="cls-2" d="m421.92,64.2c-.1,0-.17-.07-.17-.17,0-.09.07-.16.17-.15.09,0,.17.07.17.15,0,.09-.09.17-.17.17Z"/><path class="cls-2" d="m416.91,64.2c-.09,0-.17-.07-.17-.16,0-.09.08-.17.17-.17s.17.07.17.17c0,.09-.08.16-.17.16Z"/><path class="cls-2" d="m419.44,64.75c-.22,0-.39-.3-.39-.66s.17-.65.39-.65.39.29.39.65-.17.66-.39.66Z"/><path class="cls-2" d="m407.56,62.68c.51-1.02,1.42-1.66,2.32-1.52.79.12,1.37.78,1.62,1.69"/><path class="cls-2" d="m411.22,65.56c-.5,1.11-1.42,1.72-2.36,1.58-.57-.09-1.04-.47-1.35-1.03"/><path class="cls-2" d="m408.76,62.58s.7-.17.7.96v1.49s0,.61-.37,1.01c0,0,.41.35.92-.04,0,0,.27-.09.28-.83v-1.88s.13-.31.36-.48c0,0,.09-.92-1.15-.96,0,0-.79.18-.74.74Z"/><path class="cls-2" d="m410.6,62.89h3.51v2.62h-3.64"/><path class="cls-2" d="m414.07,63.33h-3.74"/><path class="cls-2" d="m413.99,63.77h-3.6"/><path class="cls-2" d="m414.02,64.2h-3.6"/><path class="cls-2" d="m413.98,64.64h-3.6"/><path class="cls-2" d="m413.97,65.08h-3.6"/><path class="cls-2" d="m402.09,63.27s-1.11-.2-2.01.88c0,0-.76.66-.66,2.04,0,0,.03,1.21.94,2"/><path class="cls-2" d="m398.46,65.63c.49-2.89,3.98-3.15,3.98-3.15,0,0-2.35-.13-3.32,1.12,0,0-1.28,1.38-.31,3.55,0,0,.72,1.61,3.15,1.05l.48-.19"/><path class="cls-2" d="m400.77,63.63c1.8-.03,2.5-1.28,2.5-1.28.29-.22.57-.32.82-.34.75-.06,1.26.7,1.26.7"/><path class="cls-2" d="m405.07,62.37s-2.03,2.85-5.42,2.67"/><path class="cls-2" d="m403.94,62.06s-.77,1.95-3.58,1.87"/><path class="cls-2" d="m404.57,62.06s-1.21,2.35-4.65,2.39"/><path class="cls-2" d="m407.42,66.06c-2.03,1.02-3.57.07-3.57.07-1.1-.76-4.35-.32-4.35-.32"/><path class="cls-2" d="m399.5,65.56l3.25-.13s1.24-.26,1.96.43c0,0,.43.46.77.62"/><path class="cls-2" d="m399.74,67.31s1.31-.14,2.24.39c0,0,.45.46,1.15.16,0,0,.96-.42,1.58-1.38"/><path class="cls-2" d="m400.88,65.7s2.32.22,3.42,1.28"/><path class="cls-2" d="m399.61,67.01s2-.35,3.25.93"/><path class="cls-2" d="m399.56,66.75s2.49-.42,3.57,1.12"/><path class="cls-2" d="m399.52,66.42s2.74-.36,3.87,1.21"/><path class="cls-2" d="m401.45,65.02s1.8-.24,2.91-1.09c0,0,.1-.14.91-1.29"/><path class="cls-2" d="m400.67,65.5l3.16-.53s.69-.1,1.2.59c0,0,.45.95,1.18.85"/><path class="cls-2" d="m404.47,65.01v-1.18h4.91v1.18h-4.91Z"/><path class="cls-2" d="m409.15,66.09h-3.6"/><path class="cls-2" d="m409.15,65.73h-3.87"/><path class="cls-5" d="m409.32,65.37h-4.43"/><path class="cls-2" d="m409.09,62.68h-3.88"/><path class="cls-2" d="m409.22,63.04h-4.15"/><path class="cls-5" d="m409.39,63.41h-4.7"/><path class="cls-2" d="m411.06,62.84s0-.98-1-1.21c0,0-1.01-.3-1.66.95"/><path class="cls-2" d="m410.5,65.66s-.27.82-1.17.86c0,0-.38.1-.73-.39"/><path class="cls-2" d="m393.18,62.45s6.09-.09,9.88-.04"/><path class="cls-2" d="m394.29,62.68s3.93.22,5.45.26"/><path class="cls-2" d="m395.58,63.82h3.34"/><path class="cls-2" d="m395.96,64.52h2.77"/><path class="cls-2" d="m396.19,65.17h2.22"/><path class="cls-2" d="m396.05,65.66h2.36"/><path class="cls-2" d="m395.65,67.41s1.25.33,3.26.03"/><path class="cls-2" d="m398.67,67.01s-1.94.27-2.8,0"/><path class="cls-2" d="m395.93,66.71s.66.23,2.62.03"/><path class="cls-2" d="m396.03,66.42s1.67.24,2.52,0"/><path class="cls-2" d="m434.25,100.49s5.4,3.68,6.32,4.25c0,0,.89.44.38,1.23,0,0-.38.66-1.48.53,0,0-.87.09-2.59-.66,0,0-3.09-1.01-7.89-4.34l5.26-1.01Z"/><path class="cls-2" d="m434.16,101.1s5.36,3.55,6.18,4.12c0,0,.28.39-.18.61,0,0-.52.44-1.81-.04,0,0-4.2-1.36-8.08-4.07l3.87-.62Z"/><path class="cls-2" d="m436.16,103.11c.11,0,.19.08.19.18.01.12-.09.23-.23.23-.17,0-.31-.12-.31-.28,0-.19.16-.36.37-.36.26,0,.48.19.49.44,0,.3-.25.56-.58.57l-.5-.14c-.44-.26-.65-.89-.65-.89-.24-.5-.65-.99-.65-.99-.59-.63-1.14-.1-1.14-.1-.42.37-.12.82-.12.82.1.3.44.46.74.36.25-.08.39-.33.3-.56-.07-.19-.28-.29-.47-.22-.16.05-.25.21-.19.36.04.12.18.18.31.14.1-.03.15-.13.11-.23"/><path class="cls-2" d="m435,102.96c-.2-.18-.21-.47-.03-.66.14-.15.39-.16.54-.02.13.11.14.3.02.42-.1.1-.25.11-.36.02-.08-.07-.08-.19-.01-.27"/><path class="cls-2" d="m438.91,105.22c-.02-.1-.13-.18-.23-.16-.14.02-.24.14-.21.27.03.16.18.27.35.24.22-.03.37-.21.33-.42-.05-.25-.29-.42-.56-.39l-1.35-.12c-.27.06-.53-.1-.59-.34-.05-.2.08-.4.29-.44.18-.05.34.07.38.22.03.13-.06.26-.19.29-.11.02-.22-.04-.24-.15"/><path class="cls-2" d="m435.1,103.2c-.16-.2-.47-.24-.69-.09-.17.11-.21.35-.08.52.1.14.29.17.43.07.11-.08.13-.23.06-.33-.07-.09-.2-.1-.28-.04"/><path class="cls-2" d="m431.98,102.03c.09-.06.21-.05.28.04.08.11.06.25-.06.33-.15.1-.34.07-.44-.06-.12-.17-.08-.4.1-.52.22-.15.52-.1.68.11,0,0,.16.06.48.68"/><path class="cls-2" d="m433.37,99.22c-.42.09-.48-.16-.9-.06-.41.1-.33.36-.75.45-.4.09-.47-.16-.86-.07-.4.1-.33.35-.73.44-.4.1-.46-.16-.87-.06-.41.09-.34.34-.75.44-.41.1-.48-.15-.88-.06-.37.09-.31.34-.68.44"/><path class="cls-2" d="m426.78,97.16s.02-.79-.79-.44c0,0-.68.62.27,1.48,0,0,.86.91,1.83.86,0,0,.48.04.63-.42,0,0,.26-.62-.51-.83"/><path class="cls-2" d="m427.77,99.63s.37.41.66-.02c0,0,.25-.52-.54-.6"/><path class="cls-2" d="m414.15,87.35s-.37-.6.39-.88c0,0,.56-.26,1.27.61,0,0,.82.83.76,2.18,0,0-.18.75.15.95,0,0,.58.3.6-.46"/><path class="cls-2" d="m415.57,89.08s-.22.52.3.6c0,0,.66.2.7-.41"/><path class="cls-2" d="m414.28,85.84s-.02-.43.43-.39c0,0,.62-.18.43,1"/><path class="cls-2" d="m422.2,93.52s-.67-.25-.85.51c0,0-.18.56.82,1.1,0,0,1,.64,2.4.38,0,0,.75-.29,1.02,0,0,0,.4.49-.38.63"/><path class="cls-2" d="m424.22,94.6s.51-.28.67.2c0,0,.31.58-.33.72"/><path class="cls-2" d="m420.65,93.87s-.45.04-.34.45c0,0-.1.62,1.09.26"/><path class="cls-2" d="m403.29,76.27c.22,0,.54.05.95.27,0,0,1.09.48,1.58,1.74,0,0,.13.76.53.83,0,0,.66.07.36-.64"/><path class="cls-2" d="m404.82,78.47s0,.56.51.44c0,0,.69-.04.48-.64"/><path class="cls-2" d="m407.56,79.79s-.65-.31-.91.43c0,0-.23.54.71,1.17,0,0,.93.73,2.34.59,0,0,.78-.21,1.01.1,0,0,.36.54-.43.59"/><path class="cls-2" d="m409.45,81.05s.54-.24.64.25c0,0,.25.61-.4.68"/><path class="cls-2" d="m406.2,80.83s-.45,0-.39.42c0,0-.07.47.59.48,0,0,.58.08.63-.52"/><path class="cls-2" d="m417.74,91.71s-.64-.33-.13-.94c0,0,.34-.5,1.42-.09,0,0,1.15.32,1.82,1.51,0,0,.25.74.65.75,0,0,.67-.02.28-.68"/><path class="cls-2" d="m419.9,92.51s.1.56.58.37c0,0,.68-.13.37-.7"/><path class="cls-2" d="m411.32,83.44s-.49-.51-1.01.1c0,0-.42.43.24,1.34,0,0,.6.99,1.97,1.34,0,0,.81.05.92.42,0,0,.13.62-.63.41"/><path class="cls-2" d="m412.64,85.24s.59-.04.52.45c0,0,0,.66-.63.51"/><g class="cls-10"><path class="cls-2" d="m401.51,78.49l6.87,7s4.92,4.72,10.04,8.8c0,0,4.16,3.61,8.5,6.33l.19.35s4.88,3.9,9.13,5.35c0,0,2.07,1.04,3.97.74,0,0,1.01.13,1.58-.92,0,0,.5-.71-.75-1.66,0,0-5.67-3.82-6.69-4.74l-.65-.61-.7-.04s-5.49-3.77-9.37-7.05c0,0-7.8-6.75-10.75-9.69,0,0-7.01-6.79-8.54-8.85"/></g><path class="cls-2" d="m404.06,74.21s3.74,4.21,6.14,6.44l5.17,4.91,5.45,4.87s5.26,4.86,11.49,9.02"/><path class="cls-2" d="m402.15,78.05s2.61,2.81,4.53,4.6c0,0,3.12,3.26,5.26,5.14,0,0,6.37,5.47,7.24,6.21,0,0,3.42,2.9,7.25,5.48l1.2.83"/><path class="cls-2" d="m361.66,100.49s-5.4,3.68-6.32,4.25c0,0-.88.44-.38,1.23,0,0,.38.66,1.48.52,0,0,.87.09,2.57-.65,0,0,3.1-1.01,7.9-4.34l-5.26-1.01Z"/><path class="cls-2" d="m361.75,101.1s-5.35,3.55-6.18,4.12c0,0-.27.39.18.61,0,0,.51.44,1.8-.04,0,0,4.2-1.36,8.08-4.07l-3.88-.62Z"/><path class="cls-2" d="m359.76,103.11c-.1,0-.19.08-.19.18,0,.12.1.23.23.23.17,0,.31-.12.31-.28,0-.19-.16-.36-.37-.36-.25,0-.47.19-.48.44,0,.31.25.56.58.58l.49-.14c.45-.26.65-.89.65-.89.25-.5.66-.99.66-.99.58-.63,1.14-.1,1.14-.1.41.37.11.83.11.83-.1.3-.44.46-.75.35-.24-.08-.38-.33-.3-.56.08-.18.28-.29.49-.22.15.05.24.21.19.36-.05.12-.18.18-.31.14-.1-.03-.15-.13-.12-.23"/><path class="cls-2" d="m360.92,102.96c.2-.18.21-.47.03-.66-.14-.15-.39-.16-.55-.02-.12.11-.13.3-.02.42.09.1.26.11.36.02.08-.07.08-.19,0-.27"/><path class="cls-2" d="m357.01,105.22c.02-.1.12-.18.23-.16.13.02.23.14.21.27-.03.16-.18.27-.36.24-.21-.03-.36-.21-.32-.42.04-.25.29-.43.56-.39l1.35-.12c.27.06.53-.1.59-.34.06-.21-.08-.4-.29-.45-.18-.04-.34.07-.38.22-.03.13.06.26.19.29.1.02.21-.05.24-.15"/><path class="cls-2" d="m360.83,103.2c.15-.2.46-.24.68-.09.18.11.21.35.09.52-.1.14-.3.17-.44.07-.11-.08-.13-.23-.05-.33.06-.09.19-.1.28-.04"/><path class="cls-2" d="m363.94,102.03c-.09-.06-.22-.05-.28.04-.08.11-.06.25.06.33.14.1.34.07.44-.06.13-.17.09-.4-.09-.52-.22-.15-.52-.1-.69.11,0,0-.16.07-.48.68"/><path class="cls-2" d="m362.55,99.22c.42.09.48-.16.9-.06.4.1.33.35.74.45.4.1.46-.15.87-.06.4.1.33.35.73.44.4.1.47-.16.87-.06.4.1.34.35.75.45.41.1.48-.15.89-.06.37.09.3.34.68.44"/><path class="cls-2" d="m369.04,97.13s0-.78.79-.42c0,0,.66.62-.31,1.48,0,0-.87.89-1.84.83,0,0-.48.03-.62-.43,0,0-.25-.63.52-.82"/><path class="cls-2" d="m368.01,99.6s-.38.4-.66-.03c0,0-.24-.52.55-.59"/><path class="cls-2" d="m381.85,87.54s.38-.6-.38-.89c0,0-.56-.27-1.29.59,0,0-.83.81-.79,2.17,0,0,.17.76-.17.95,0,0-.59.29-.59-.47"/><path class="cls-2" d="m380.4,89.25s.21.52-.31.59c0,0-.66.19-.7-.43"/><path class="cls-2" d="m381.74,86.03s.03-.43-.42-.4c0,0-.62-.19-.45.99"/><path class="cls-2" d="m373.68,93.58s.69-.24.85.52c0,0,.17.57-.85,1.09,0,0-1,.62-2.39.34,0,0-.75-.3-1.02,0,0,0-.42.49.37.63"/><path class="cls-2" d="m371.65,94.62s-.51-.3-.67.18c0,0-.32.58.31.72"/><path class="cls-2" d="m375.22,93.95s.45.05.34.46c0,0,.09.62-1.1.24"/><path class="cls-2" d="m389.68,81.51c-.07.05-.13.12-.22.18,0,0-.86.8-2.28.77,0,0-.8-.16-1.01.17,0,0-.3.56.5.55"/><path class="cls-2" d="m387.34,81.52s-.55-.19-.62.3c0,0-.21.63.45.65"/><path class="cls-2" d="m378.17,91.83s.65-.32.15-.94c0,0-.34-.5-1.42-.11,0,0-1.15.31-1.84,1.48,0,0-.26.73-.67.74,0,0-.67-.03-.26-.68"/><path class="cls-2" d="m376.01,92.6s-.1.56-.58.36c0,0-.67-.14-.36-.7"/><path class="cls-2" d="m384.76,83.67s.5-.51,1,.11c0,0,.41.44-.27,1.33,0,0-.62.97-2,1.3,0,0-.81.04-.92.41,0,0-.14.62.63.42"/><path class="cls-2" d="m383.4,85.45s-.59-.05-.52.44c0,0-.02.65.61.52"/><g class="cls-9"><path class="cls-2" d="m391.44,81.52l-3.9,3.98s-4.93,4.72-10.04,8.8c0,0-4.16,3.61-8.49,6.33l-.19.35s-4.89,3.9-9.14,5.35c0,0-2.08,1.04-3.97.74,0,0-1.02.13-1.57-.92,0,0-.51-.71.74-1.66,0,0,5.68-3.82,6.7-4.74l.64-.61.7-.04s5.49-3.77,9.37-7.05c0,0,7.8-6.75,10.76-9.69,0,0,.94-.92,2.21-2.18"/></g><path class="cls-2" d="m386.1,80.37l-5.16,4.91-5.44,4.87s-5.27,4.86-11.5,9.02"/><path class="cls-2" d="m390.55,81.38c-.45.44-.89.88-1.3,1.27,0,0-3.12,3.26-5.27,5.14,0,0-6.37,5.47-7.25,6.21,0,0-3.41,2.9-7.24,5.48l-1.2.83"/><path class="cls-2" d="m378.32,76.02s-.25-.1-.06-.23c0,0,.3-.14.41.13,0,0,.04.19-.18.39,0,0-.32.19-.28.39,0,0,.04.27.3.14"/><path class="cls-2" d="m378.35,75.76s-.27.01-.13-.17"/><path class="cls-2" d="m378.43,76.34s.26-.06.17.15"/><path class="cls-2" d="m378.49,74.47s-.25-.1-.06-.23c0,0,.3-.14.4.12,0,0,.04.2-.17.4,0,0-.33.19-.29.4,0,0,.03.26.3.14"/><path class="cls-2" d="m378.52,74.22s-.27.01-.13-.17"/><path class="cls-2" d="m378.61,74.8s.25-.05.16.15"/><path class="cls-2" d="m378.85,73.43s-.28,0-.15.18c0,0,.2.25.41.05,0,0,.12-.16.02-.43,0,0-.21-.31-.09-.47,0,0,.15-.23.33,0"/><path class="cls-2" d="m378.76,73.67s-.24-.12-.2.1"/><path class="cls-2" d="m379.09,73.17s.21.16.22-.06"/><path class="cls-2" d="m393.51,68.28v3.02s-3.6,1.09-7.98,1.22c0,0-3.83.13-5.21.05l-1.48-.13s-.87-.31-1.43.31l-.74.83s-.23.27-.48.29c0,0-.51.08-.22.39,0,0,.39.22.37.63,0,0-.05,1.05.86,1.51,0,0,3.9,2.3,6.85,3.35,0,0,3.14,1.4,6.14,1.66,0,0,2.86.39,5.26-.22,0,0,4.43-1.01,6-2.81,0,0,2.4-1.97,3-5.78,0,0,.46-4.52.42-6.09"/><path class="cls-2" d="m404.77,68.9s-4.7,3.59-12.78,5.61c0,0-1.11.52-2.08-.36,0,0-.41-.74-.18-1.92"/><path class="cls-2" d="m393.51,71.31l3.6,1.45s.28,5.56-.1,7.97"/><path class="cls-2" d="m390.79,71.96s-.65,6.09-.6,9.47"/><path class="cls-2" d="m386.17,72.58s-.74,5.3-.51,7.8"/><path class="cls-2" d="m380.54,72.58s-.92,2.45-.93,5.17"/><path class="cls-2" d="m379.87,72.54s-.92,2.32-.92,5.04"/><path class="cls-2" d="m393.51,70.08l-1.66-2.06"/><path class="cls-2" d="m392.6,68.19l.9,1.06"/><path class="cls-2" d="m378.73,72.43s-1.04,1.81-1,4.21"/><path class="cls-2" d="m377.1,73.19s-.59,1.32-.62,2.23"/><path class="cls-2" d="m376.82,76.12l.94-.46-1.11-.95,1.29-.27-.93-.95,1.35-.33-.52-.65"/><path class="cls-2" d="m405.76,66.55l-.97,1.05"/><path class="cls-1" d="m381.54,74.94l-.2.62.19.69.18-.69-.17-.62"/><path class="cls-3" d="m381.54,74.94l-.2.62.19.69.18-.69-.17-.62Z"/><path class="cls-1" d="m382.01,75.28l-.1.31.09.35.09-.35-.09-.31"/><path class="cls-3" d="m382.01,75.28l-.1.31.09.35.09-.35-.09-.31Z"/><path class="cls-1" d="m381.07,75.23l-.1.31.09.34.09-.34-.09-.31"/><path class="cls-3" d="m381.07,75.23l-.1.31.09.34.09-.34-.09-.31Z"/><path class="cls-1" d="m384.3,75l-.29.89.27,1,.27-1-.25-.89"/><path class="cls-3" d="m384.3,75l-.29.89.27,1,.27-1-.25-.89Z"/><path class="cls-1" d="m384.98,75.48l-.14.45.13.5.13-.5-.12-.45"/><path class="cls-3" d="m384.98,75.48l-.14.45.13.5.13-.5-.12-.45Z"/><path class="cls-1" d="m383.63,75.42l-.14.45.13.5.13-.5-.12-.45"/><path class="cls-3" d="m383.63,75.42l-.14.45.13.5.13-.5-.12-.45Z"/><path class="cls-1" d="m388.16,75.31l-.35,1.07.32,1.2.32-1.2-.29-1.07"/><path class="cls-3" d="m388.16,75.31l-.35,1.07.32,1.2.32-1.2-.29-1.07Z"/><path class="cls-1" d="m388.97,75.9l-.17.54.16.6.16-.6-.15-.54"/><path class="cls-3" d="m388.97,75.9l-.17.54.16.6.16-.6-.15-.54Z"/><path class="cls-1" d="m387.34,75.82l-.17.54.16.6.16-.6-.15-.54"/><path class="cls-3" d="m387.34,75.82l-.17.54.16.6.16-.6-.15-.54Z"/><path class="cls-1" d="m392.3,75.39l-.35,1.27.32,1.42.32-1.42-.29-1.27"/><path class="cls-3" d="m392.3,75.39l-.35,1.27.32,1.42.32-1.42-.29-1.27Z"/><path class="cls-1" d="m393.11,76.09l-.17.64.16.71.16-.71-.15-.64"/><path class="cls-3" d="m393.11,76.09l-.17.64.16.71.16-.71-.15-.64Z"/><path class="cls-1" d="m391.49,76l-.18.64.16.71.16-.71-.14-.64"/><path class="cls-3" d="m391.49,76l-.18.64.16.71.16-.71-.14-.64Z"/></g><g><path class="cls-8" d="m412.13,131.55c.64,1.15,0,2.36-.07,3.58,1.15.29,2.29-.43,2.58-1.58h0c.09-4.6,4.57-10.57.5-14.32-.93,2.15-1.29,4.51-2.65,6.37h-.29c.73-3.44,1.76-7.21,2.86-10.53,3.29,2.46,3.98,6.52,3.15,10.31,2.39-.28,6.54-3.11,6.52.93.22,4.44-4.07,6.99-7.23,9.31,5.09,2.02,12.33-2.82,10.67-8.59.37-3.67-2.94-7.67-1.43-10.89,2.7-1.27,3.04,12.68,3.87,14.97,2.56,12.41,28.86,4.59,34.02-2.72.8,1.29-.6,2.39-.64,3.72.13,3.02,4.69,1.02,4.73-1.22.12-.49.15-1.38.79-1.5,1.19,2.53-.57,3.13,3.22,1.58,2.4-1.01-.41-4.11,1.43-5.59,2.8,3.61.36,8.44-4.01,9.1-1.07.14-2.15.57-3.01,1.29-2.13,1.85-4.98-.38-4.15-2.94-7.48,5.99-30.03,13.02-33.8.21-2.81,3.58-7.47,6.76-12.18,5.23-1.34-1.01-2.31-1.65-4.01-.93-1.05.15-2.18-.12-3.08.57-5.56,3.5-5.05-6.84-7.73-2.29-3.8,12.14-12.95,1.95-7.88-5.16,1.23-2.4,5.05-4.78,3.22-7.66-.43-.5-.14-1.79.36-2.29.77-.57,1.42,1.06,2.22,1.29,1.83,1.02,1.14-2.44,2.65-2.29,1.37.73,3.32,2.54,1.65,4.01h0c-.87.17-1.49-.65-2.08-1.15-.57,1.58-1.36,2.72-3.08,2.01-1.07,2.79-2.68,5.29-4.3,7.81-1.26,2.21-.44,4.97,1.72,6.23,3.44,1.4,4.33-4.16,6.02-6.09,1.78-2.33,3.05.45,3.51,2.15,2.02,3.41,5.78-.36,5.87-3.15l.07.21Zm4.01,1.72c2.9-1.2,6.15-2.97,6.66-6.3-4.16-.1-5.98,2.62-6.66,6.3Z"/><path class="cls-8" d="m347.46,115.29c3.69,7.06-3.21,20,8.52,21.34,6.67.75,14.21.36,20.34-2.22.21-2.14,2.22-2.71,3.8-3.72-7.28-3.74,2.53-13.49,5.8-5.51.67,1.15.12,3.38,1.58,3.72h0c1.33.26,4.98-1.05,4.08,1.29-.46,1.94-3.38.73-4.44,1.72-1.07,1.16-.18,3.59-1.93,4.51.75-6.74-.45-3.57-5.73-2.72-2.06,1.43,4.41,1.95,2.79,4.51h0c-.35.8-1.25,1.42-1.93.64-4.96-3.45-11.31,1.25-16.9.64-20.7,1.14-13.99-7.88-16.97-21.56-.5-.64,0-1.72,1-2.65Zm37.39,13.54c.16-2.77-3.92-5.67-5.44-3.08.11,2.65,3.54,2.59,5.44,3.08Z"/><path class="cls-8" d="m332.13,140.5c-20.91-1.52-9.42-21.77,3.01-8.16-.36.57-1.07.29-1.5,0-10.95-6.6-17.09,2.6-3.01,5.44,2.88.6,14.48-.98,11.24-5.37-.76-1.07-3.65-1.48-2.65-3.15,3.88-4.46,11.69,10.81-7.09,11.24Z"/><path class="cls-8" d="m359.49,120.59c-1.82-1.28-4.26,1.24-6.3,1.5.27-3.67,6.11-3.62,8.81-5.09,3.68-.92,7.06-3.17,10.67-4.08-1.83,4.66-9.06,3.59-12.1,6.8-1.07,2.54-4.68,10.48,1.29,8.02.95,2.55-2.77,4.62-4.15,2.01h0c-1.29-3.12.61-6.31,1.79-9.17Z"/><path class="cls-8" d="m460.54,118.09l-7.16,2.29c1.37-3.66,11.15-4.45,14.9-6.37-.21,3.27-5.48,1.99-6.88,4.3-1.49,3.8,1.2,3.72,4.01,2.51-.3,2.03-2.42,3.37-4.44,3.01-2.25-.75-.66-3.97-.43-5.73Z"/><path class="cls-8" d="m364.86,126.04c4.51-2.29,9.53-3.72,13.18-7.66-4.13-.23-.8-5.1,1.07-3.8h0c3.96,6.52-9.53,10.99-14.25,11.46Z"/><path class="cls-8" d="m442.78,122.1c1.34-1.56,2.12-9.3,4.87-5.8.49,2.56-2.61,2.38-3.37,4.08-.68,1.49-1.35,2.82-2.22,4.15l-.29.07c-1.37-1.37-.32-4.6-2.01-5.08-.72-.99.07-1.99.72-2.79,1.62,1.29,1.46,3.39,1.93,5.23l.36.14Z"/><path class="cls-8" d="m336.29,117.73c-1.5-.36-2.65.5-4.01.72-.68-2.56,3.08-2.71,4.8-3.37,2.95.73-2.3,7.44-4.44,6.3.52-1.7,3.21-1.65,3.65-3.65Z"/><path class="cls-8" d="m392.22,118.16c-.07-.86.43-1.65,1.22-1.93,3.19-.68,5.99-2.87,9.1-3.65-1.29,3.69-7.12,4.04-10.31,5.59Z"/><path class="cls-8" d="m336.79,125.61c-.68,1.31-1.18,2.08-2.65,1.36-.64-.43-1.82-.93-1.36-1.93h0c.41-2.59,3-.47,4.01.57Z"/><path class="cls-8" d="m407.98,129.26c-1.32-.7-3.16-1.61-1.86-3.29.38-.83,1.1-.16,1.65,0,1.94.67,1.2,2.02.21,3.29Z"/></g><g><path class="cls-7" d="m325.5,157.8c0-.61-.16-1.07-.49-1.4-.33-.32-.92-.64-1.78-.94s-1.51-.63-1.97-.97c-.45-.34-.79-.72-1.02-1.15-.23-.43-.34-.93-.34-1.48,0-.96.32-1.76.96-2.38.64-.62,1.49-.94,2.53-.94.71,0,1.35.16,1.9.48.56.32.99.76,1.29,1.33s.45,1.19.45,1.87h-1.54c0-.75-.18-1.33-.54-1.75-.36-.41-.88-.62-1.56-.62-.62,0-1.1.17-1.44.52-.34.35-.51.83-.51,1.46,0,.51.18.94.55,1.29.37.35.94.66,1.7.93,1.2.4,2.05.88,2.57,1.46.52.58.77,1.34.77,2.27,0,.99-.32,1.78-.96,2.37-.64.59-1.51.89-2.61.89-.71,0-1.36-.16-1.96-.46-.6-.31-1.07-.74-1.41-1.3-.34-.56-.51-1.2-.51-1.93h1.54c0,.75.21,1.34.63,1.75s.99.63,1.72.63c.67,0,1.18-.17,1.52-.52.34-.35.51-.82.51-1.41Z"/><path class="cls-7" d="m336.9,148.71v8.65c-.01,1.15-.35,2.06-1,2.71s-1.57.98-2.75.98-2.12-.32-2.76-.96c-.63-.64-.96-1.55-.97-2.73v-8.65h1.52v8.58c0,.82.17,1.43.52,1.83.35.4.91.61,1.68.61s1.34-.2,1.69-.61c.35-.4.52-1.01.52-1.83v-8.58h1.54Z"/><path class="cls-7" d="m341.39,159.56h4.77v1.31h-6.31v-12.16h1.54v10.85Z"/><path class="cls-7" d="m353.4,150.02h-3.2v10.85h-1.53v-10.85h-3.19v-1.31h7.92v1.31Z"/><path class="cls-7" d="m360.81,157.69h-4.11l-.94,3.18h-1.57l3.92-12.16h1.31l3.93,12.16h-1.57l-.96-3.18Zm-3.71-1.31h3.32l-1.66-5.53-1.65,5.53Z"/><path class="cls-7" d="m373.54,160.87h-1.54l-4.87-9.37v9.37h-1.54v-12.16h1.54l4.89,9.41v-9.41h1.52v12.16Z"/><path class="cls-7" d="m382.61,157.69h-4.11l-.94,3.18h-1.57l3.92-12.16h1.31l3.93,12.16h-1.57l-.96-3.18Zm-3.71-1.31h3.32l-1.66-5.53-1.65,5.53Z"/><path class="cls-7" d="m393.43,150.02h-3.2v10.85h-1.53v-10.85h-3.19v-1.31h7.92v1.31Z"/><path class="cls-7" d="m401.66,155.25h-4.3v4.31h5.01v1.31h-6.54v-12.16h6.46v1.31h-4.93v3.92h4.3v1.31Z"/><path class="cls-7" d="m416.75,155.86c0,1.66-.35,2.94-1.06,3.83-.71.9-1.71,1.35-3.02,1.35s-2.24-.44-2.97-1.31c-.73-.87-1.1-2.1-1.13-3.7v-2.29c0-1.63.36-2.9,1.08-3.82.72-.92,1.72-1.38,3.01-1.38s2.28.44,3,1.32c.72.88,1.08,2.14,1.1,3.78v2.21Zm-1.53-2.13c0-1.29-.21-2.24-.63-2.87s-1.06-.94-1.93-.94-1.48.32-1.91.95-.65,1.57-.66,2.81v2.18c0,1.24.22,2.19.65,2.84s1.08.98,1.93.98,1.49-.3,1.9-.9.63-1.52.64-2.77v-2.28Z"/><path class="cls-7" d="m425.36,155.5h-4.11v5.37h-1.53v-12.16h6.33v1.31h-4.8v4.17h4.11v1.31Z"/><path class="cls-7" d="m440.37,155.86c0,1.66-.35,2.94-1.06,3.83-.71.9-1.71,1.35-3.02,1.35s-2.24-.44-2.97-1.31c-.73-.87-1.1-2.1-1.13-3.7v-2.29c0-1.63.36-2.9,1.08-3.82.72-.92,1.72-1.38,3.01-1.38s2.28.44,3,1.32c.72.88,1.08,2.14,1.1,3.78v2.21Zm-1.53-2.13c0-1.29-.21-2.24-.63-2.87s-1.06-.94-1.93-.94-1.48.32-1.91.95-.65,1.57-.66,2.81v2.18c0,1.24.22,2.19.65,2.84s1.08.98,1.93.98,1.49-.3,1.9-.9.63-1.52.64-2.77v-2.28Z"/><path class="cls-7" d="m445.31,148.71l3.17,9.92,3.17-9.92h1.97v12.16h-1.53v-4.74l.14-4.74-3.18,9.48h-1.17l-3.17-9.45.14,4.71v4.74h-1.53v-12.16h1.97Z"/><path class="cls-7" d="m462.68,157.69h-4.11l-.94,3.18h-1.57l3.92-12.16h1.31l3.93,12.16h-1.57l-.96-3.18Zm-3.71-1.31h3.32l-1.66-5.53-1.65,5.53Z"/><path class="cls-7" d="m475.41,160.87h-1.54l-4.87-9.37v9.37h-1.54v-12.16h1.54l4.89,9.41v-9.41h1.52v12.16Z"/></g><path class="cls-8" d="m195.51,77.52c-.83-.59-1.51-1.18-2.31-1.61-.41-.22-1.04-.15-1.58-.21-.01.3-.1.61-.03.9.17.67.77,1.07,1.53,1.27.76.2,1.55.24,2.39-.35m-36.46-7.62c.47-.81.86-1.53,1.31-2.24.1-.16.4-.24.6-.35.08.2.28.44.21.59-.33.75-.64,1.51-1.12,2.2-.56.79-.59,1.52-.32,2.4.82,2.65,1.64,5.31,2.18,8,.34,1.67.35,3.42.19,5.12-.12,1.21-.6,2.45-1.24,3.56-.45.78-.24,1.53-.4,2.28-.15.74-.02,1.52-.03,2.28-.02,1.37,1.51,2.85,3.12,2.96,1.43.1,2.3-.67,2.96-1.53.91-1.18,1.63-2.46,2.51-3.66.6-.81,1.34-1.56,2.03-2.33.6-.68,1.57-.81,2.46-.96.8-.13,1.57.05,2.13.63.88.91,1.72,1.85,2.69,2.69,3.58,3.1,7.92,3.7,12.73,2.4,2.25-.61,4.44-1.37,6.65-2.06,0-.07,0-.15,0-.22-.58-.19-1.16-.4-1.75-.57-1.05-.31-2.11-.61-3.17-.89-1.53-.4-2.79.03-3.88.91-.34.27-.7.47-1.15.27-.38-.17-.44-.42-.35-.83.5-2.43,2.81-3.46,5.07-4.57,1.7-.84,3.34-1.77,5.01-2.64.48-.25.66-.59.56-1.03-.14-.61-.3-1.22-.48-1.83-.13-.42-.35-.44-.8-.17-1.48.89-3.01,1.37-4.95.84-1.52-.41-2.89-2.47-2.82-3.67.1-1.6.92-2.98,1.77-4.36.56-.91,2.65-1.19,3.92-.53,1.61.83,2.82,1.98,3.77,3.3.71.99,1.47,2,1.92,3.08.57,1.37.63,2.8-.4,4.12-.6.76-1.12,1.58-1.8,2.29-.66.7-1.47,1.3-2.27,1.99,3.8,1.07,7.45,2.68,11.68,2.55.6-.02,1.21.04,1.81.07.84.05,1.33.56.99,1.18-.41.73-.92,1.46-1.55,2.07-.23.22-.94.14-1.43.13-.89-.01-1.78-.08-2.68-.11-1.49-.06-2.86.34-4.21.77-3.64,1.15-7.25,2.37-10.92,3.47-1.95.58-4.03.74-6.06.32-2.38-.49-4.58-1.36-6.3-2.85-.97-.84-1.87-1.73-2.75-2.64-.76-.78-2.15-.85-3.07-.19-1.29.93-1.91,2.19-2.66,3.39-.98,1.58-1.97,3.14-3.78,4.24-.87.52-2.72.29-3.66-.2-.84-.45-1.55-.92-1.77-1.69-.32-1.11-.83-2.19-.63-3.39.09-.59-.15-1.21-.24-1.82-.21.2-.47.46-.74.72-1.67,1.6-3.66,2.83-6.07,3.58-.68.21-1.38.41-2.1.52-.26.04-.58-.2-.87-.31.15-.17.25-.39.45-.49.91-.49,1.89-.9,2.76-1.44,1.04-.64,1.99-1.39,2.98-2.09.41-.29.82-.58,1.23-.87,2.12-1.49,3.02-3.46,3.25-5.67.23-2.17-.21-4.29-.7-6.41-.44-1.9-.99-3.79-1.51-5.68-.1-.36-.32-.7-.51-1.11-.49.16-.94.31-1.55.51.17-.23.23-.39.35-.46,1.3-.67.74-1.63.52-2.49-.58-2.27-1.31-4.51-1.8-6.8-.14-.65.27-1.41.55-2.09.32-.77.79-1.51,1.17-2.27.1-.2.09-.43.16-.64.11-.32.07-.85.69-.7.48.11.75.49.61.99-.18.7-.51,1.47-.33,2.13.29,1.08.74,2.21,1.9,2.94,1.51.94,1.19,1.47.37,2.78-.04.06-.1.1-.16.15-.86.68-.85,1.45-.28,2.38"/><path class="cls-8" d="m231.9,94.11c-.77,1.52-1.8,2.78-3.83,3.56-3.36,1.28-6.98,1.2-10.25-.54-1.47-.78-1.94-1.86-2.47-2.86-.98-1.85-1.62-3.77-2.34-5.67-.59-1.58-1.16-3.17-1.62-4.78-1.02-3.62-1.96-7.25-2.95-10.88-.34-1.27-.66-2.54-1.09-3.8-.34-1,.68-1.75,1.06-2.62.07-.15.18-.3.32-.42.17-.14.43-.37.62-.36.31.02.76.16.86.31.29.42.51.88.61,1.33.6,2.59,1.13,5.19,1.74,7.77.3,1.27.72,2.53,1.1,3.8.64,2.08,1.24,4.15,1.95,6.22.71,2.09,1.38,4.18,2.33,6.23.57,1.22,1.4,2.39,3.29,3.22,2.16.94,6.38.35,7.88-.4.25-.13.38-.56.22-.75-.99-1.2-1.88-2.47-3.18-3.54-1.74-1.42-3.77-2.72-5.78-4.01-.71-.46-1.68-.79-2.57-1.14-.55-.22-.63-.51-.53-.84.44-1.61,1.33-3.07,3.36-4.23,3.81-2.18,7.56-4.4,11.35-6.59,3.18-1.84,6.38-3.66,9.57-5.49.34-.2.66-.42.94-.65.33-.28.74-.67,1.27-.38.44.24.81.75.72,1.09-.23.93-1.18,1.72-2.2,2.37-2.59,1.66-5.32,3.24-8.03,4.83-3.09,1.81-6.24,3.58-9.34,5.39-1.1.64-2.11,1.34-3.18,2.03.96.53,1.91.97,2.71,1.5,1.42.94,2.78,1.92,4.1,2.92,2.32,1.77,4.56,3.57,6.87,5.34,1.17.9,2.42,1.75,3.63,2.63,2.29,1.65,7,1.52,8.99-.16.57-.49,1.3-.91,2.03-1.32.23-.13.75-.19,1.06-.13,2.29.45,4.55.94,6.82,1.42.2.04.4.08.64.13-.56-1.04-2.57-1.98-4.22-1.96-.48,0-.94.21-1.42.25-.4.03-.87.02-1.2-.09-.18-.06-.27-.42-.15-.57.68-.89,1.48-1.75,2.14-2.65.31-.43.48-.91.57-1.38.31-1.71-.32-3.36-1-5-.47-1.14-1.12-2.25-1.59-3.39-.21-.52-.45-.66-1.33-.45-2.74.65-5.63.9-8.54,1.08-.67.04-1.34.11-2.06.06.22-.05.43-.12.65-.16,2.88-.59,5.79-1.14,8.65-1.77,1.7-.37,1.67-.58,1.09-1.65-1.33-2.45-2.15-4.95-.39-7.46.79-1.13,1.65-2.25,2.52-3.35.11-.14.55-.19.83-.28.25.34.74.69.7,1.01-.1.74-.56,1.46-.69,2.19-.2,1.2.9,2.02,2.41,2.66,1.13.48,1.57,1.22.86,2-.93,1.02-1.48,1.4-2.57,1.61.12.2.23.41.48.84.68-.65,1.21-1.17,1.78-1.67.2-.18.51-.3.94-.55.34,1.34-.3,2.2-1.65,2.93-.28.15-.39.57-.29.82.82,2.01,1.84,4,2.53,6.03.36,1.06.42,2.21.18,3.29-.17.77-1.06,1.47-1.53,2.08,1.34.51,2.73.94,3.92,1.53,1.87.92,3.02,2.17,3.72,3.57.61,1.21-.36,2.21-1.41,3.13-1.44,1.25-2.14,1.33-4.92.75-2.32-.48-4.63-.97-6.9-1.52-.87-.21-1.43-.12-2.03.27-.84.55-1.63,1.17-2.64,1.59-2.97,1.22-6.35,1.06-8.87-.49-1.61-.99-2.93-2.15-4.38-3.24-.25-.18-.51-.36-.89-.62"/><path class="cls-8" d="m114.85,91.49c-1-2.3-2.53-4.41-5.01-6.07-1.03,1.62-2.04,3.21-3.05,4.8,2.54.4,5.25.83,8.07,1.27m-12.07-6.39c-2.98.07-4.08,1.4-3.82,3.08.25,1.58,2.69,2.12,4.57,1.14.32-.17.7-.31.98-.5.51-.35,1.15-.69,1.4-1.12.91-1.58-.82-2.42-3.12-2.6m-5.72,6.93c-1.75-1.55-1.43-3.13-.47-4.66.89-1.41,1.97-2.78,3.18-4.09.5-.54,1.6-.84,2.37-1.29.38-.23.67-.53.91-.84,1.33-1.68,2.29-1.51,4.31-1.04,2.7.62,4.55,1.93,6.24,3.33,2.25,1.86,3.74,3.99,4.72,6.25.7,1.62-.53,2.9-1.92,4.15-1.3,1.15-2.74,1.02-4.22.78-2.28-.37-4.56-.73-6.86-1.05-.44-.06-.89-.09-.76.52.15.65-.46,1.36-.54,2.05-.2,1.69,1.75,2.66,4.06,3,4.52.68,7.32-1.15,10.16-2.85,3.7-2.22,7.31-4.5,10.97-6.75,1-.61,1.93-1.28,3.04-1.8.77-.36,1.76-.57,2.71-.72,1.72-.27,3.22,1,2.13,2.06-.43.41-.71.88-1.13,1.28-.13.13-.57.25-.77.2-1.52-.38-2.64.12-3.66.71-1.89,1.1-3.74,2.23-5.57,3.37-1.82,1.15-3.56,2.35-5.39,3.5-1.85,1.16-3.67,2.35-5.69,3.38-1.44.73-3.14,1.38-5.09,1.28-2.04-.11-3.95-.44-5.69-1.3-2.06-1.02-1.89-2.47-2.12-3.8-.17-1,.4-2.05.6-3.09.07-.36.01-.73.01-1.1-.84-.38-1.48-.03-2.17.21-2.54.91-4.99,1.97-7.67,2.66-3.95,1.02-8.14,1.55-12.39,1.89-4.15.33-8.08-.15-11.99-.92-1.94-.38-3.53-1.17-5.15-1.94-1.96-.94-3.25-2.17-4.18-3.58-1.9-2.9-3.35-5.88-4.4-8.98-1.12-3.31-1.68-6.66-2.58-9.99-.37-1.38-.76-2.76-1.32-4.12-.36-.88.38-1.55.65-2.31.06-.15.16-.3.3-.42.29-.24.62-.47.93-.7.35.28.9.52,1.02.84.44,1.2.77,2.42,1.07,3.64.37,1.51.7,3.02,1.01,4.54.3,1.46.53,2.92.86,4.38.13.56.47,1.1.66,1.66.44,1.29.66,2.62,1.32,3.86,1.14,2.12,2.49,4.21,3.87,6.27.99,1.49,3.16,2.27,5.21,2.94,4.07,1.32,8.46,1.65,13.04,1.37,4.02-.24,7.91-.81,11.75-1.53,1.54-.29,2.98-.81,4.61-1.27"/><path class="cls-8" d="m146.11,86.58c1.34-1.4,2.22-2.92,2.01-4.84-.18-1.63-.3-3.27-.64-4.86-.36-1.75-.94-3.45-1.42-5.19-.71,0-1.38.8-2.1-.02.43-.23.82-.49,1.25-.64.54-.19.57-.51.42-.99-.33-1.11-.69-2.22-.93-3.35-.21-1-.42-2.04-.33-3.04.08-.88.52-1.74.87-2.58.44-1.03.96-2.03,1.44-3.04.67.3.89.84.7,1.43-.24.71-.44,1.43-.64,2.15-.24.87.03,1.57.74,2.11.09.07.15.16.24.24,1.3,1.13,1.4,1.94.39,3.33-.32.44-.57.85-.09,1.38.27-.45.52-.89.8-1.32.08-.13.24-.21.36-.31.1.14.32.33.28.43-.18.53-.3,1.17-.67,1.52-.64.6-.51,1.2-.32,1.88.46,1.68,1.03,3.33,1.35,5.04.3,1.61.55,3.29.43,4.9-.17,2.27-1,4.39-2.2,6.38-1.31,2.17-2.9,4.08-4.94,5.55-.95.69-2.12,1.08-3.21,1.55-1.37.59-2.73,1.22-4.24,1.33-.37.03-.85-.12-1.11-.37-.32-.31.05-.54.34-.68,1.26-.62,2.55-1.19,3.79-1.85,2.12-1.12,4.05-2.51,5.84-4.12.51-.45.73-.98.48-1.61-.21-.53-.23-1.06-.23-1.61,0-1.26-.62-2.33-1.19-3.37-1.46-2.67-2.9-5.36-4.54-7.92-.99-1.54-2.32-2.87-3.5-4.29-.25-.3-.46-.22-.6.12-.11.27-.19.55-.32.8-.32.62-.77.73-1.23.21-.89-.99-1.8-1.97-2.57-3.06-.75-1.07-1-2.28-.38-3.55.14-.29.2-.63.26-.95.11-.7.24-.82.89-.6,1.24.41,2.39,1.01,3.29,1.98,1.14,1.21,2.28,2.44,3.32,3.73,1.21,1.5,2.4,3.03,3.45,4.65.94,1.44,1.87,2.94,2.49,4.53.99,2.51,2.1,5.02,2,7.83-.01.37,0,.74,0,1.1"/><path class="cls-8" d="m26.38,86.27c.62.65.54,1.16.38,1.88-.18.84-.22,1.78-.01,2.61.53,2.12,2.32,3.02,4.15,3.74,2.22.87,4.56.83,6.87.62,1.66-.15,3.32-.41,4.95-.79,1.45-.34,2.86-.86,4.26-1.37.83-.3,1.61-.76,2.42-1.13.37-.17.4-.32.19-.71-.41-.76-.63-1.63-1.07-2.36-.46-.77-1.11-1.43-1.64-2.16-.15-.2-.28-.53-.21-.74.18-.59.44-1.16.71-1.71.4-.8.86-.89,1.43-.22,1.63,1.91,2.62,4.09,2.71,6.65.04,1.28-.18,2.5-1.01,3.48-.47.55-1.14.99-1.79,1.33-2.16,1.11-4.44,1.9-6.83,2.42-2.61.56-5.23.86-7.89.76-1.9-.07-3.7-.52-5.36-1.48-1.28-.74-2.51-1.51-3.24-2.89-.89-1.67-.87-3.33-.19-5.05.21-.53.29-1.11.49-1.65.16-.4.42-.77.67-1.22"/><path class="cls-8" d="m103.2,67.75c-.02,1.33-.76,1.95-2.68,2.45-1.57.41-3.09.89-4.64,1.33-3.21.91-6.47,1.76-9.62,2.75-1.82.57-3.48,1.36-5.17,2.1-2.39,1.05-4.74,2.13-7.08,3.22-.91.43-1.72.93-2.59,1.39-.24.12-.52.21-.78.32-.22-.24-.69-.52-.61-.7.31-.73.52-1.6,1.26-2.12,1.69-1.2,3.59-2.29,5.55-3.32,2.93-1.53,6-2.95,9.43-4.02,2.18-.68,4.36-1.35,6.59-1.96,2.9-.79,5.83-1.52,8.77-2.24,1.05-.26,1.59.05,1.58.8"/><path class="cls-8" d="m33.73,75.86c.86-.63,1.73-1.19,2.5-1.85.67-.57,1.26-1.25,1.86-1.9.1-.1.17-.37.11-.45-.1-.14-.35-.29-.49-.26-1.51.39-3.24.22-4.38,1.63-.29.36-.61.27-.68-.2-.05-.36,0-.75.08-1.11.12-.58.24-1.17.47-1.71.26-.62.75-1.05,1.46-1.15.84-.12,1.68-.26,2.52-.31,1.37-.08,2.65,1.18,2.51,2.53-.08.7-.31,1.44-.69,2.02-.98,1.48-2.31,2.58-4.04,3.13-.51.16-.92.11-1.25-.38"/><path class="cls-8" d="m167.4,80.43c-.82-.83-1.53-1.53-2.22-2.26-.4-.42-.03-.84.12-1.2.28-.67.68-1.29,1.07-2.01,1.13.46,1.66,1.58,2.69,2.28,1.11.17,1.47-.8,1.95-1.64.58-1.02.77-1.05,1.7-.31.66.53,1.31,1.07,2.06,1.69-.83,1.06-1.46,1.87-2.13,2.72-.47-.36-.88-.61-1.19-.94-.41-.45-.85-.62-1.46-.65-.62-.03-1.01.12-1.33.69-.31.54-.76,1-1.26,1.64"/><path class="cls-8" d="m64.26,74.92c-.05-.57-.29-1.16-.11-1.7.36-1.05-.1-2.02-.37-3-.48-1.73-1.75-3.21-3.88-4.34-.57-.3-.84-.65-.67-1.16.16-.5.08-1.02.18-1.53.12-.61.49-.75,1.32-.43.58.22,1.12.53,1.54.87,2.53,2.06,3.63,4.47,3.83,7.04.08,1.08-.25,2.18-.5,3.26-.08.37-.47.72-.72,1.07-.21-.03-.41-.06-.62-.09"/><path class="cls-8" d="m85.18,78.79c1.24.89.12,1.62-.02,2.39-.06.3-.23.6-.3.9-.23,1.01.45,1.68,2.02,1.82.41.04.95-.24,1.32-.45.3-.18.41-.63.96-.37.39.18.81.56.79.84-.05.95-.49,1.85-1.42,2.63-.87.73-1.91.83-3.23.36-1.16-.42-1.41-1.13-1.77-1.83-.18-.36-.52-.71-.55-1.08-.06-.61-.03-1.24.15-1.84.28-.92.67-1.82,1.12-2.71.13-.26.63-.44.94-.65"/><path class="cls-8" d="m218.48,74.15c-.15-.22-.41-.43-.43-.66-.2-1.77-1.15-3.2-2.88-4.28-.73-.45-1-.99-.75-1.73.17-.51.2-1.04.29-1.57.1-.59.58-.61.98-.31.73.55,1.45,1.13,2,1.79.55.68,1.02,1.45,1.29,2.23.21.6.68,1.23.26,1.91-.04.07-.05.19,0,.26.57.9-.07,1.59-.48,2.33-.09.01-.17.02-.26.04"/><path class="cls-8" d="m144.01,96.28c.95.1,1.79.63,2.78.19.65-.29.89.01.96.98-.66.34-1.34.62-1.95,1.01-.38.25-.63.69-.97,1-.19.18-.46.28-.69.42-.09-.25-.29-.52-.25-.75.08-.43.3-.83.49-1.29-.16-.07-.34-.2-.53-.25-1.34-.31-1.23-1.38-.79-2.23.21-.4.56-.77.93-1.03.31-.22.79-.41,1.11-.33.58.15,1.08.54,1.17,1.21.03.19-.01.55-.1.57-.27.08-.7.17-.85.03-.66-.64-.95-.2-1.31.45"/><path class="cls-8" d="m38.14,100.63c.44.29.78.49,1.09.72.5.38.96.8,1.47,1.16.62.45.86,1.11.55,1.81-.16.37-.37.73-.59,1.08-.3.48-.67.74-1.23.3-.69-.53-1.41-1.01-2.1-1.55-.27-.21-.46-.53-.29-.92.35-.81.68-1.62,1.09-2.6"/><path class="cls-8" d="m190.64,65.77c-.39.58-.67,1.14-1.1,1.61-.92,1.01-.95.99-2.06.09-.38-.31-.83-.57-1.25-.85-.48-.32-.59-.72-.34-1.18.34-.63.66-1.26,1-1.89.2-.38.79-.44,1.29-.1.6.41,1.2.82,1.72,1.28.31.28.48.67.73,1.04"/><path class="cls-8" d="m128.04,72.81c.73.41.19.9.2,1.29.03.68-.1,1.36-.15,2.04-.05.57.41.75.79.96.36.19.61.01.84-.31.09-.12.5-.19.57-.11.21.23.44.56.43.83-.01.41-.18.83-.37,1.2-.35.7-1.1.49-1.67.54-.29.03-.7-.4-.93-.72-1.05-1.39-.79-2.85-.14-4.32.19-.44.28-.92.44-1.42"/><path class="cls-8" d="m35.44,76.58c.23.44.36.77.35,1.27-.03.79.09,1.63.79,2.24.41.35.68.3,1.01-.08.16-.19.49-.45.64-.39.25.1.51.39.59.65.2.66-.69,2.14-1.54,2.05-.68-.07-1.67-.54-1.85-1.55-.09-.51-.46-.98-.52-1.49-.1-.86-.15-1.74.31-2.54.03-.05.11-.07.24-.16"/><path class="cls-8" d="m172.37,95.35c.29.44.3.94.26,1.48-.04.53-.15,1.11.58,1.38.43.15.69.06.89-.3.24-.44.49-.44.77-.04.34.49.21,1.33-.29,1.83-.78.77-1.64.52-2.27-.4-.68-1.01-.64-1.95-.27-3,.1-.29.1-.62.14-.93.07,0,.13,0,.2,0"/><path class="cls-8" d="m215.07,45.69c-2.19-.4-4.38-.82-6.58-1.19-1.89-.31-4.7.68-5.31,2.05-.06.14-.61.33-.74.27-.3-.13-.71-.45-.65-.62.43-1.37.55-2.88,2.09-3.89,1.63-1.07,3.68-1.53,5.84-1.16,2.62.45,5.19,1.08,7.78,1.63,3.76.8,7.59,1.19,11.51.98.83-.04,1.38.17,1.6.77.03.08.11.2.06.25-.65.74-1.16,1.58-2.03,2.15-.5.33-1.57.25-2.38.26-3.23.05-6.33.51-9.3,1.42-.62.19-.65.41-.22.74,2.13,1.64,4.62,2.62,7.84,2.44,3.55-.19,6.89-.86,9.86-2.32.9-.44,1.68-1.04,2.44-1.61.2-.15.23-.51.15-.73-1.13-3.06-2.25-6.11-3.45-9.15-.65-1.65-1.4-3.27-2.14-4.89-.14-.31-.37-.62-.66-.88-.67-.62-.82-1.24-.34-1.97.33-.5.55-1.03.85-1.54.23-.4.81-.48,1.04-.11.79,1.21,1.54,2.44,2.23,3.68.45.81.79,1.65,1.1,2.49.3.79.47,1.6.77,2.39.44,1.16.97,2.29,1.41,3.45.42,1.08.71,2.19,1.17,3.27.61,1.45,1.24,2.9,2.01,4.32.37.68.93,1.36,1.63,1.87,1.24.9,2.86.98,4.47.63,2.15-.47,2.18-.56,1.61-2.12-1.14-3.11-2.63-6.13-4.54-9.04-.56-.86-1.06-1.74-1.58-2.6-1.35.18-2.6.34-3.85.51-.03-.05-.05-.1-.08-.15.59-.19,1.18-.38,1.78-.57,1.61-.51,1.69-.53.94-1.67-.96-1.48-1.35-2.98-1.33-4.63.01-1.42.8-2.52,1.71-3.65.14-.17.54-.24.82-.35.2.27.65.61.56.81-.69,1.52.66,2.4,1.9,3.31.28.2.63.35.92.54.9.61.51,1.28.16,1.95-.06.11-.13.23-.03.41.15-.15.27-.32.46-.43.13-.08.39-.15.52-.11.14.04.32.24.29.34-.1.31-.17.71-.46.9-1.21.8-1.04,1.61-.39,2.56,2.07,3.03,3.49,6.24,4.83,9.47.67,1.61.78,3.28-.46,4.79-.77.94-1.67,1.91-2.83,2.57-1.67.94-3.69.89-5.65.29-2.03-.63-2.97-1.93-3.81-3.28-.16-.26-.29-.53-.47-.86-.2.12-.42.19-.49.3-1.15,1.83-3.21,2.92-5.63,3.79-1.91.69-3.89,1.1-5.96,1.35-4.06.51-7.56-.39-10.59-2.32-.58-.37-1.03-.88-1.36-1.39-.31-.48-.4-1.04-.63-1.7-1.05.5-2.05,1.03-3.12,1.46-2.26.91-4.48,1.92-6.87,2.6-3.99,1.14-7.97.92-11.69-.73-.55-.24-.88-.19-1.24.12-1.02.86-2.25,1.49-3.72,1.9-2.74.76-5.1.18-7.17-1.13-.94-.59-1.69-1.35-2.48-2.06-.68-.6-1.26-1.27-1.98-1.85-.94-.76-2.04-.74-3.51-.18-2.38.9-3.9,2.37-5.31,3.95-1.16,1.3-2.28,2.65-3.7,3.8-.99.8-2.37,1.4-3.72,1.89-.59.21-1.59.04-2.29-.17-2.2-.63-3.99-1.69-4.69-3.35-.4-.95-.3-2.01-.36-3.03-.05-.72,0-1.45,0-2.33-4.55,4.36-10.4,6.39-17.66,6.32,1.12-.34,2.24-.66,3.34-1.03,1.12-.38,2.23-.77,3.3-1.21,3.79-1.58,7.33-3.4,9.97-5.98,1.1-1.08,1.88-2.26,2.06-3.64.1-.74.5-1.47.53-2.21.04-1.17-.04-2.35-.21-3.51-.16-1.08-.45-2.15-.79-3.2-.54-1.69-1.18-3.37-1.77-5.06-.14-.4-.26-.81-.41-1.26-1.51.11-3.01.23-4.51.34-.02-.03-.03-.06-.05-.09.98-.31,1.97-.61,2.94-.92,1.26-.4,1.26-.41.94-1.38-.7-2.14-1.01-4.32-.38-6.48.29-.99,1.04-1.91,1.65-2.84.06-.09.8-.09.92.04.31.29.44.62.36,1.08-.22,1.19.31,2.33,1.51,3.14,1.88,1.26,1.9,1.81.22,3.52-.17.17-.49.25-.67.42-.18.17-.27.39-.4.58.13.06.25.12.38.18.65-.54,1.28-1.09,1.96-1.61.19-.15.51-.21.77-.32.06.23.28.55.15.69-.59.64-1.18,1.3-1.95,1.81-.59.4-.69.71-.5,1.24.75,2.13,1.58,4.26,2.12,6.42.61,2.41,1.22,4.86.4,7.3-.51,1.52-1.41,2.96-1.89,4.48-.36,1.11-.43,2.28-.44,3.42,0,.92.12,1.87.43,2.77.41,1.17,3.23,2.55,4.88,2.5.26,0,.52-.12.76-.21,1.84-.75,3.13-1.87,4.28-3.15,1.49-1.66,3.09-3.28,4.87-4.77,1.24-1.04,2.98-1.8,4.91-1.95.88-.07,2.06.26,2.72.7,1.08.73,1.93,1.67,2.72,2.59,2.02,2.38,5.16,3.35,8.59,2.07,1.93-.72,3.23-1.82,4.19-3.18.43-.61.87-1.23,1.26-1.86.25-.4.58-.41.87-.1.23.24.46.59.39.84-.22.79-.5,1.57-.91,2.32-.22.4-.09.58.35.74,1.88.71,3.86.85,5.98.77,4.75-.18,8.39-2.12,12.22-3.78.99-.43,2.01-.84,3.01-1.26,0-.07,0-.15,0-.22"/><path class="cls-8" d="m102.59,53.74s.02.08.03.11c1.17-.21,2.34-.4,3.51-.63,3.66-.74,7.15-1.87,10.52-3.2,1.09-.43,2.05-1.09,3.09-1.65-1.97-1.73-5.14-2.46-7.95-.81-2.09,1.22-4.03,2.62-6.02,3.95-1.08.73-2.12,1.49-3.18,2.23m5.01-24.08c1.33-.9,1.73-1.99,1.92-3.17.94-.06.75.48.7.85-.17,1.22-.71,2.34-1.76,3.25-.32.28-.31.49-.23.83.8,3.32,1.71,6.63,2.28,9.98.22,1.25-.36,2.58-.59,3.87-.03.14-.09.28-.19.57.9-.47,1.68-.81,2.37-1.26.96-.62,1.99-1.06,3.21-1.21,1.3-.16,2.55.04,3.71.49,1.36.53,2.52,1.24,2.72,2.57.04.27-.05.56-.1.83-.12.57-.18,1.16-.39,1.72-.61,1.61-2.11,2.66-3.77,3.58-2.36,1.32-5.05,2.11-7.72,2.89-2.18.63-4.42,1.22-6.7,1.55-1.95.29-3.98.22-5.98.24-.6,0-.96.07-1.27.52-.91,1.32-1.41,2.71-1.21,4.21-.7.11-.9,0-1.01-.55-.26-1.27-.09-2.49.57-3.68.15-.26.27-.53.34-.67-1.81-.87-3.54-1.7-5.28-2.52-1.04-.49-1.61-.4-2.6.14-.96.52-1.95,1.05-3.03,1.35-1.57.44-3.07.04-4.45-.66-.76-.38-1.51-.75-2.28-1.11-.61-.28-1.09-.23-1.73.14-2.6,1.49-5.47,2.57-8.59,3.18-2.42.48-4.89.77-7.38.57-3.41-.27-6.59-1.04-9.37-2.78-1.39-.87-2.25-2.03-3.32-3.08-1.06-1.03-2.22-1.08-3.57-.27-2.65,1.58-4.25,3.77-5.82,6.01-.6.86-1.31,1.69-2.08,2.46-1.14,1.13-2.7,1.78-4.48,1.97-1.74.19-3.81-.93-4.61-2.54-.58-1.17-1.01-2.41-1.02-3.7,0-1.01-.21-2.03-.13-3.04.09-1.09.42-2.17.62-3.26.07-.38.05-.77.16-1.13.12-.41.39-.95,1-.74.34.12.72.6.56,1.12-.26.86-.46,1.74-.63,2.61-.4,2.13,0,4.16,1.23,6.08.58.9,2.65,1.74,4.48.87,1.68-.8,2.88-1.96,3.92-3.23.87-1.06,1.59-2.2,2.42-3.28,1.22-1.58,2.79-2.94,4.8-3.85,1.51-.68,3.5-.64,4.83,1.01.69.86,1.48,1.68,2.33,2.43,1.36,1.2,3.16,1.81,5.06,2.3,4.55,1.17,8.97.64,13.38-.49,2.6-.67,4.95-1.65,6.94-3.13.77-.58,1.43-1.25,2.18-1.84.23-.18.8-.38.89-.31.3.24.66.62.61.9-.08.51-.38,1.02-.7,1.49-.21.3-.27.42.15.62.62.3,1.13.74,1.77,1,1.71.68,3.38.39,4.95-.33,1.78-.82,3.2-1.98,4.5-3.24.25-.24.83-.56.99-.48.41.2.82.54.52,1.05-.3.52-.57,1.05-.78,1.6-.08.2-.03.55.13.65,1.44.93,3.09,1.58,4.85,2.02.25.06.6.03.84-.06,3.15-1.27,6.04-2.87,8.67-4.74,1.02-.73,1.7-1.63,2.1-2.74.86-2.44.2-4.79-.33-7.16-.36-1.6-.77-3.19-1.19-4.78-.12-.45-.36-.88-.5-1.2-2.27.56-4.49,1.1-6.7,1.64-.03-.07-.06-.13-.09-.2.98-.37,1.97-.72,2.93-1.11.99-.41,1.96-.86,2.93-1.3.44-.2.52-.51.44-.91-.3-1.55-.61-3.11-.83-4.67-.27-1.96.39-3.79,1.42-5.55.16-.28.29-.58.49-.84.1-.13.32-.31.47-.3.21.01.53.15.58.29.11.32.18.68.1,1-.24.95-.35,1.85.66,2.6.37.28.72.58,1.03.9.66.68.08,1.34-.19,1.96-.33.73-.89,1.39-1.24,2.12-.14.29.03.66.07,1.11"/><path class="cls-8" d="m132.77,46.51c-.72-.48-1.3-.94-1.94-1.27-.32-.17-.82-.24-1.13-.11-.33.14-.65.55-.75.91-.05.18.32.63.59.74,1.05.43,2.07.16,3.23-.27m4.84-18c-1.1.24-2.27.5-3.44.75-.01-.04-.02-.08-.04-.12.75-.36,1.49-.77,2.27-1.08,1.14-.45,1.11-.54.98-1.76-.18-1.71-.41-3.48-.17-5.16.19-1.33,1.04-2.57,1.64-3.83.04-.08.61-.04.64.04.11.36.24.8.14,1.14-.49,1.58-.39,2.07.84,3.11.55.46.94.96.65,1.71.71.5.74,1.15.05,2.07-.3.4-.62.81-1,1.13-.49.42-.27.94-.21,1.36.27,1.82.69,3.63.97,5.45.3,1.98.6,3.97.74,5.96.09,1.25-.48,2.41-.92,3.59-.62,1.65-1.76,2.92-2.84,4.23-.28.35-.7.65-1.11.82-.87.33-.91,1.09-1.09,1.81-.23.92-.41,1.86-.76,2.73-.28.71-.68,1.44-1.21,1.96-.98.97-2.03,1.9-3.18,2.65-1.27.83-2.65,1.52-4.04,2.12-1.13.49-2.35.82-3.55,1.1-1.64.39-3.29.67-4.95.98-1.07.2-2.14.44-3.22.51-1.65.12-3.3.11-4.95.15-.4,0-.81,0-1.29-.12.2-.11.38-.26.59-.32,2.75-.75,5.54-1.4,8.25-2.26,3.81-1.2,7.56-2.56,11.13-4.41,1.68-.87,3.34-1.78,4.71-3.12.75-.73.92-1.3.59-2.31-.78.28-1.55.64-2.35.84-1.01.25-2.04.29-3.01-.23-1.04-.56-1.64-1.95-1.28-3.08.39-1.2.83-2.39,1.25-3.58.73-2.08,2.54-2.09,4.08-1.03,1.21.84,2.18,1.85,2.83,3.21,1.45-.65,2.78-1.38,3.7-2.67.52-.73.6-1.59.5-2.42-.2-1.72-.48-3.44-.77-5.15-.38-2.28-.8-4.56-1.2-6.79"/><path class="cls-8" d="m252.48,37.21c.54-.26.95-.5,1.4-.68.78-.31.78-.72.5-1.27-.53-1.07-1.11-2.15-1.38-3.26-.34-1.43-.33-2.9.68-4.25.46-.61.85-1.25,1.27-1.88.14,0,.28,0,.43,0,.18.36.61.77.5,1.07-.61,1.66.68,2.72,2.1,3.73.7.49,1.16.97.74,1.73.9.07.92.43.62.89-.31.46-.67.91-.91,1.39-.13.26-.19.61-.06.86,1,1.88,2.14,3.73,3.08,5.63,1,2.03,2.09,4.07,2.68,6.17.75,2.69.65,5.4-1.62,7.81-.39.42-.77.87-1.29,1.2-.33.21-.9.23-1.36.34,0-.37-.24-.9.01-1.1,1.54-1.24,1.46-2.76,1.64-4.25.25-2.11-.76-4.08-1.58-6.04-.56-1.35-1.51-2.61-2.26-3.92-.64-1.12-1.3-2.23-1.87-3.37-.54-1.07-.77-1.19-2.3-.83-.2.05-.4.1-.61.14-.07.01-.16-.04-.43-.12"/><path class="cls-8" d="m64.53,31.43c1.34-.99,2.67-1.99,4.01-2.97,2.19-1.6,4.39-3.18,6.57-4.8,1.5-1.11,2.98-2.24,4.45-3.39.31-.24.53-.6.78-.9.26-.32.49-.31.64.08.36.96-.04,1.79-.54,2.54-.92,1.37-2.19,2.38-3.56,3.28-2,1.32-3.96,2.73-6.01,3.98-1.29.79-2.72,1.36-4.09,2.03-.38.18-.74.43-1.14.52-.32.07-.69-.05-1.03-.09-.02-.09-.05-.18-.07-.27"/><path class="cls-8" d="m184.14,33.51c.25-.2.47-.46.75-.61,1.98-1.01,4.01-1.94,5.96-3.01,1.95-1.07,3.85-2.24,5.75-3.4.36-.22.59-.64.9-.96.16-.17.36-.3.55-.44.16.23.48.48.45.68-.1.67-.18,1.4-.51,1.96-1.08,1.83-2.83,2.89-4.74,3.66-1.77.71-3.57,1.35-5.37,1.95-.86.28-1.76.44-2.66.57-.32.05-.68-.12-1.02-.19-.02-.07-.03-.14-.05-.21"/><path class="cls-8" d="m131.2,23.66c.8.4.85.87.7,1.46-.48,1.89-1.74,3.09-3.38,4.04-2.52,1.46-5.33,2.18-8,3.26-.55.22-1.2.24-1.8.27-.18.01-.46-.17-.54-.34-.05-.11.13-.44.29-.52,1.26-.66,2.54-1.28,3.81-1.92,2.68-1.35,5.31-2.77,7.67-4.64.39-.31.69-.75,1-1.15.12-.15.19-.35.24-.46"/><path class="cls-8" d="m37.64,39.76c-.35.51-.63.97-.97,1.39-.19.24-.44.45-.7.6-.15.09-.44.11-.57.03-.59-.37-1.2-.73-1.69-1.21-.57-.57-1.23-.56-1.86-.38-.29.08-.45.58-.68.89-.22.3-.42.64-.7.86-.18.14-.59.24-.74.14-.83-.6-1.61-1.26-2.39-1.93-.1-.08-.14-.34-.09-.46.34-.76.67-1.53,1.08-2.25.23-.4.63-.38.98-.08.45.39.9.79,1.34,1.18,1.26,1.1,2.33.46,2.98-.61.73-1.19.79-1.2,1.85-.31.47.4,1.01.72,1.47,1.14.27.24.42.61.69,1"/><path class="cls-8" d="m164.39,36.27c.3-.26.73-.55,1.05-.93.31-.36.47-.84.77-1.2.22-.26.56-.42.91-.13.62.51,1.24,1.01,1.85,1.54.48.42.37,1.42-.2,2.03-1.23,1.31-1.31,1.34-2.65.07-.64-.61-1.36-.4-2.07-.47-.07,0-.16.12-.23.2-.37.43-.73.87-1.1,1.29-.31.35-.65.16-.93-.04-.49-.35-.94-.74-1.4-1.12-.31-.26-.45-.54-.19-.93.42-.63.83-1.25,1.22-1.9.2-.34.46-.36.72-.17.71.53,1.39,1.09,2.25,1.76"/><path class="cls-8" d="m86.76,61.79c.95-.13,1.59-.69,2.03-1.63.32-.69.64-.68,1.24-.14.32.28.64.56.94.86.63.62.77,1.16.3,1.87-.4.61-.95,1.12-1.46,1.7-.5-.47-.9-.84-1.3-1.22-.67-.64-1.67-.55-2.24.19-.26.33-.54.65-.83.96-.35.39-.71.25-1.03-.04-.31-.28-.57-.61-.87-.9-.83-.79-.87-1-.23-1.92.29-.42.64-.8.88-1.25.25-.46.56-.34.81-.12.6.51,1.16,1.07,1.76,1.64"/><path class="cls-8" d="m51.52,40.08c-.57-.28-.96-.62-1.07-1.31-.08-.5-.4-.99-.69-1.42-.11-.17-.45-.25-.69-.25-1.23.02-1.96-.76-1.6-1.93.12-.38.65-.85,1.03-.88.45-.04,1.12.22,1.37.58.5.71.79,1.58,1.16,2.39.14.32.27.64.58.99.21-.65.4-1.31.63-1.95.3-.81.62-1.62.97-2.41.24-.56,1.34-.75,1.88-.28.33.29.56.73.77,1.13.07.14.01.48-.11.56-.14.09-.44.07-.6-.02-.99-.6-1.15-.58-1.51.49-.36,1.07-.6,2.18-1.03,3.22-.17.42-.69.71-1.1,1.1"/><path class="cls-8" d="m71.81,31.47c.13.25.25.5.39.75.3.52.54,1.1.92,1.55.32.38.87.21.99-.28.09-.36.02-.75.05-1.13.04-.63.09-1.27.17-1.9.02-.11.25-.28.38-.27.16,0,.42.13.45.25.11.38.15.78.18,1.18.06.8.57,1.27,1.36,1.25.49-.01.65-.2.45-.68-.42-.97-.42-1.22-.06-2.45.29.27.58.45.74.71.24.37.41.79.57,1.2.41,1.04,0,2.45-1.01,2.89-.45.19-1.1-.06-1.65-.15-.15-.02-.27-.2-.36-.27-.51.52-.97,1.02-1.46,1.48-.36.33-.72.26-1.08-.1-.31-.31-.76-.51-1.01-.85-.69-.97-.49-2.04-.32-3.09.09-.03.18-.05.27-.08"/><path class="cls-8" d="m220.45,31c-.25,1.2-.41,2.18-.66,3.14-.08.32-.32.62-.56.87-.29.3-.68.33-.95-.02-.5-.65-.96-1.33-1.42-2.01-.28-.42-.43-.83-1.16-.58-.81.29-1.41-.44-1.18-1.42.09-.41.41-.99.73-1.07.51-.13,1.18-.06,1.54.52.48.8.92,1.62,1.39,2.43.15.26.32.51.59.93.13-.73.19-1.27.32-1.8.16-.63.32-1.28.57-1.88.23-.55.72-.8,1.32-.59.71.25,1.35.58,1.52,1.43.08.37.04.65-.31.74-.23.06-.53,0-.76-.11-.3-.13-.57-.34-.99-.61"/><path class="cls-8" d="m212.66,57.98c-.17.35-.26.69-.47.94-.38.45-.82.87-1.27,1.26-.12.1-.46.11-.57.01-.65-.57-1.27-1.18-1.88-1.79-.24-.23-.25-.43,0-.73.47-.54.86-1.15,1.27-1.74.34-.49.7-.34,1.05-.03.49.45.98.9,1.44,1.38.18.2.28.47.42.71"/><path class="cls-8" d="m192.21,38.47c-.35.46-.72,1.02-1.17,1.52-.6.67-1.28.6-1.86-.1-.32-.38-.7-.71-.99-1.12-.13-.19-.22-.56-.12-.73.42-.73.91-1.42,1.4-2.1.08-.1.36-.19.45-.14.88.63,1.81,1.22,2.2,2.32.02.06.03.13.09.35"/><path class="cls-8" d="m90.23,36.37c.75.7,1.5,1.28,2.08,2,.43.54.09,1.45-.61,2.14q-.88.88-1.86.04c-.3-.26-.6-.53-.92-.76-.4-.29-.3-.65-.13-.97.42-.77.88-1.51,1.44-2.45"/><path class="cls-8" d="m43.43,55.53c.03.43.04.87.09,1.3.08.68.1,1.38.3,2.01.18.55.86.58,1.31.2.19-.16.48-.2.73-.3.11.3.33.59.32.89-.02.63-.78,1.37-1.5,1.52-.69.14-1.13-.33-1.49-.79-.87-1.16-.86-2.44-.36-3.75.14-.36.25-.73.37-1.09.07,0,.15,0,.23.01"/></svg>